<svg xmlns="http://www.w3.org/2000/svg" width="20.797" height="20.797" viewBox="0 0 20.797 20.797"><defs><style>.a{fill:#2c2c2c;}</style></defs><path class="a" d="M-1035.148-140.915a2.086,2.086,0,0,0-2.08,2.08,2.086,2.086,0,0,0,2.08,2.079,2.085,2.085,0,0,0,2.08-2.079A2.086,2.086,0,0,0-1035.148-140.915Zm-6.239-16.637v2.079h2.08l3.743,7.9-1.456,2.5a3.7,3.7,0,0,0-.208,1.04,2.086,2.086,0,0,0,2.08,2.079h12.478v-2.079h-12.062a.224.224,0,0,1-.208-.208v-.1l.936-1.768h7.695a1.9,1.9,0,0,0,1.768-1.04l3.743-6.759a.572.572,0,0,0,.208-.52.982.982,0,0,0-1.04-1.04h-15.39l-.936-2.079Zm16.638,16.637a2.086,2.086,0,0,0-2.079,2.08,2.086,2.086,0,0,0,2.079,2.079,2.086,2.086,0,0,0,2.08-2.079A2.086,2.086,0,0,0-1024.749-140.915Z" transform="translate(1041.387 157.552)"/></svg>