<svg xmlns="http://www.w3.org/2000/svg" width="17.484" height="13.75" viewBox="0 0 17.484 13.75"><defs><style>.a{fill:#707070;}</style></defs><path class="a" d="M-307.229,68.273a.462.462,0,0,0-.521.458h0a3.706,3.706,0,0,1,3.7,3.707h0a.463.463,0,0,0,.458-.522A4.2,4.2,0,0,0-307.229,68.273Z" transform="translate(314.633 -65.592)"/><path class="a" d="M-434.6,22.023l-3.065-1.2a1.066,1.066,0,0,0-.168-.05,6.886,6.886,0,0,0-4.2-7.914,6.882,6.882,0,0,0-8.91,3.891,6.883,6.883,0,0,0,3.891,8.91,6.886,6.886,0,0,0,8.457-2.952,1.059,1.059,0,0,0,.157.077l3.065,1.2a1.054,1.054,0,0,0,1.366-.6h0A1.054,1.054,0,0,0-434.6,22.023Zm-5.323-.955a4.964,4.964,0,0,1-6.426,2.806,4.964,4.964,0,0,1-2.806-6.426,4.964,4.964,0,0,1,6.426-2.806A4.964,4.964,0,0,1-439.926,21.068Z" transform="translate(451.417 -12.383)"/></svg>