<svg xmlns="http://www.w3.org/2000/svg" width="19.571" height="17.672" viewBox="0 0 19.571 17.672"><defs><style>.a{fill:#23d16a;}</style></defs><path class="a" d="M1410.576-26.378a13.305,13.305,0,0,0-2.079-.4,62.382,62.382,0,0,0-13.423,0,13.307,13.307,0,0,0-2.079.4c-.463.142-.994.364-.994.82a.534.534,0,0,0,.038.2c.005.013.011.026.017.039l.282.3,7.993,8.444v4.593l3.088,2.514v-7.088l7.79-8.446.323-.35v0a.539.539,0,0,0,.038-.2C1411.571-26.014,1411.039-26.236,1410.576-26.378ZM1408.048-25a56.513,56.513,0,0,1-6.263.312,56.515,56.515,0,0,1-6.263-.312,15.816,15.816,0,0,1-2.086-.355,3.41,3.41,0,0,1-.592-.2,9.514,9.514,0,0,1,2.677-.555,62.979,62.979,0,0,1,12.526,0,9.514,9.514,0,0,1,2.677.555,3.415,3.415,0,0,1-.592.2A15.811,15.811,0,0,1,1408.048-25Z" transform="translate(-1392 27.143)"/></svg>