<svg xmlns="http://www.w3.org/2000/svg" width="19.933" height="18" viewBox="0 0 19.933 18"><defs><style>.a{fill:#464646;}</style></defs><path class="a" d="M1410.92-26.364a13.554,13.554,0,0,0-2.118-.41,63.537,63.537,0,0,0-13.672,0,13.554,13.554,0,0,0-2.118.41c-.472.145-1.013.371-1.013.836a.546.546,0,0,0,.038.2c.005.014.011.027.018.04l.287.3,8.142,8.6V-11.7l3.145,2.56v-7.22l7.934-8.6.328-.356v0a.546.546,0,0,0,.039-.2C1411.933-25.993,1411.392-26.219,1410.92-26.364Zm-2.575,1.4a57.56,57.56,0,0,1-6.379.318,57.556,57.556,0,0,1-6.379-.318,16.094,16.094,0,0,1-2.124-.361,3.474,3.474,0,0,1-.6-.2,9.69,9.69,0,0,1,2.727-.565,64.145,64.145,0,0,1,12.758,0,9.687,9.687,0,0,1,2.727.565,3.465,3.465,0,0,1-.6.2A16.106,16.106,0,0,1,1408.346-24.963Z" transform="translate(-1392 27.143)"/></svg>