<?xml version="1.0" encoding="UTF-8"?><svg id="Layer_1" xmlns="http://www.w3.org/2000/svg" viewBox="0 0 189.29 239.32"><defs><style>.cls-1{fill:#23d16a;}</style></defs><g><path class="cls-1" d="M16.07,211.12h-2.94l.12,5.65c0,.15-.15,.29-.29,.29h-3.28c-.15,0-.29-.15-.29-.29l.17-8.27-.17-8.27c0-.15,.15-.29,.29-.29h6.41c4.13,0,6.51,1.86,6.51,5.5s-2.45,5.68-6.53,5.68Zm.17-8.46h-3.03l-.12,5.75h3.25c1.44,0,2.67-.83,2.67-2.89s-1-2.86-2.76-2.86Z"/><path class="cls-1" d="M25.64,217.07c-.15,0-.29-.15-.29-.29l.17-8.27-.17-8.27c0-.15,.15-.29,.29-.29h11.42c.15,0,.29,.15,.29,.29v2.18c0,.15-.15,.29-.29,.29h-7.88l-.15,3.94h7.31c.15,0,.29,.15,.29,.29v2.18c0,.15-.15,.29-.29,.29h-7.31l.15,4.89h8.07c.15,0,.29,.15,.29,.29v2.18c0,.15-.15,.29-.29,.29h-11.62Z"/><path class="cls-1" d="M47.56,217.46c-4.48,0-7.56-1.86-7.76-5.87,0-.15,.15-.29,.29-.29h3.3c.17,0,.29,.12,.32,.29,.27,1.86,1.15,3.08,3.91,3.08,2.23,0,3.45-.66,3.45-2.28,0-3.87-10.94-.81-10.94-7.61,0-3.2,2.5-5.21,6.87-5.21,3.99,0,6.73,1.54,7.27,5.14,.02,.15-.1,.29-.24,.29h-3.3c-.2,0-.32-.12-.34-.29-.22-1.49-1.47-2.32-3.52-2.32-1.76,0-3.03,.61-3.03,2.03,0,3.64,10.98,.68,10.98,7.46,0,3.62-2.79,5.58-7.27,5.58Z"/><path class="cls-1" d="M65.49,217.43c-5.26,0-8.51-3.65-8.51-8.86s3.33-9,8.49-9c3.67,0,6.65,1.49,7.66,6.02,.02,.15-.1,.29-.24,.29h-3.06c-.17,0-.32-.12-.37-.29-.49-2.01-1.83-3.16-4.04-3.16-2.98,0-4.6,2.3-4.6,6.12s1.66,6.02,4.57,6.02c2.37,0,3.67-1.27,4.13-3.55,.02-.17,.17-.29,.34-.29h3.13c.15,0,.27,.15,.24,.29-.98,4.62-3.74,6.41-7.76,6.41Z"/><path class="cls-1" d="M87.28,217.07c-.17,0-.34-.12-.39-.27l-1.3-4.09h-6.41l-1.25,4.09c-.07,.15-.22,.27-.39,.27h-3.2c-.15,0-.24-.15-.2-.27l5.75-16.59c.05-.15,.22-.27,.39-.27h4.43c.17,0,.34,.12,.39,.27l5.63,16.59c.05,.12-.05,.27-.2,.27h-3.25Zm-2.62-7.31l-2.35-7.31-2.23,7.31h4.57Z"/><path class="cls-1" d="M95.11,217.07c-.15,0-.29-.15-.29-.29l.22-8.27-.17-5.8h-4.62c-.15,0-.29-.15-.29-.29v-2.18c0-.15,.15-.29,.29-.29h13.11c.15,0,.29,.15,.29,.29v2.18c0,.15-.15,.29-.29,.29h-4.62l-.17,5.8,.22,8.27c0,.15-.15,.29-.29,.29h-3.38Z"/><path class="cls-1" d="M116,217.07c-.17,0-.34-.12-.39-.27l-1.3-4.09h-6.41l-1.25,4.09c-.07,.15-.22,.27-.39,.27h-3.2c-.15,0-.24-.15-.2-.27l5.75-16.59c.05-.15,.22-.27,.39-.27h4.43c.17,0,.34,.12,.39,.27l5.63,16.59c.05,.12-.05,.27-.2,.27h-3.25Zm-2.62-7.31l-2.35-7.31-2.23,7.31h4.57Z"/><path class="cls-1" d="M129.58,213.25l-1.69-2.54h-2.47l.12,6.07c0,.15-.15,.29-.29,.29h-3.25c-.15,0-.29-.15-.29-.29l.15-8.27-.15-8.27c0-.15,.15-.29,.29-.29h6.9c4.28,0,6.75,1.81,6.75,5.38,0,2.52-1.39,4.26-3.82,4.99l4.21,6.51c.07,.1,0,.24-.12,.24h-3.74c-.17,0-.34-.1-.44-.24l-2.15-3.57Zm-.54-10.59h-3.55l-.07,5.33h3.72c1.57,0,2.91-.73,2.91-2.59s-1.1-2.74-3.01-2.74Z"/><path class="cls-1" d="M139.05,217.07c-.15,0-.29-.15-.29-.29l.17-8.27-.17-8.27c0-.15,.15-.29,.29-.29h3.23c.15,0,.29,.15,.29,.29l-.17,8.27,.17,8.27c0,.15-.15,.29-.29,.29h-3.23Z"/><path class="cls-1" d="M158.08,217.07c-.17,0-.34-.12-.39-.27l-1.3-4.09h-6.41l-1.25,4.09c-.07,.15-.22,.27-.39,.27h-3.2c-.15,0-.24-.15-.2-.27l5.75-16.59c.05-.15,.22-.27,.39-.27h4.43c.17,0,.34,.12,.39,.27l5.63,16.59c.05,.12-.05,.27-.2,.27h-3.25Zm-2.62-7.31l-2.35-7.31-2.23,7.31h4.57Z"/><path class="cls-1" d="M167.3,210.73v6.04c0,.15-.15,.29-.29,.29h-2.94c-.15,0-.29-.15-.29-.29l.15-8.27-.15-8.27c0-.15,.15-.29,.29-.29h3.96c.17,0,.34,.1,.44,.24l6.8,12.06v-.29l-.12-4.84v-6.87c0-.15,.15-.29,.29-.29h2.94c.15,0,.29,.15,.29,.29l-.15,8.27,.15,8.27c0,.15-.15,.29-.29,.29h-4.11c-.17,0-.34-.1-.44-.24l-6.7-11.96,.05,.98,.12,4.89Z"/><path class="cls-1" d="M37.92,239.32c-.15,0-.29-.15-.29-.29l.17-8.27-.17-8.27c0-.15,.15-.29,.29-.29h11.06c.15,0,.29,.15,.29,.29v2.18c0,.15-.15,.29-.29,.29h-7.51l-.15,4.7h7.31c.15,0,.29,.15,.29,.29v2.18c0,.15-.15,.29-.29,.29h-7.31l.15,6.61c0,.15-.15,.29-.29,.29h-3.25Z"/><path class="cls-1" d="M59.84,235.5l-1.69-2.54h-2.47l.12,6.07c0,.15-.15,.29-.29,.29h-3.25c-.15,0-.29-.15-.29-.29l.15-8.27-.15-8.27c0-.15,.15-.29,.29-.29h6.9c4.28,0,6.75,1.81,6.75,5.38,0,2.52-1.39,4.26-3.82,4.99l4.21,6.51c.07,.1,0,.24-.12,.24h-3.74c-.17,0-.34-.1-.44-.24l-2.15-3.57Zm-.54-10.59h-3.55l-.07,5.33h3.72c1.57,0,2.91-.73,2.91-2.59s-1.1-2.74-3.01-2.74Z"/><path class="cls-1" d="M69.3,239.32c-.15,0-.29-.15-.29-.29l.17-8.27-.17-8.27c0-.15,.15-.29,.29-.29h3.23c.15,0,.29,.15,.29,.29l-.17,8.27,.17,8.27c0,.15-.15,.29-.29,.29h-3.23Z"/><path class="cls-1" d="M76.57,239.32c-.15,0-.29-.15-.29-.29l.17-8.27-.17-8.27c0-.15,.15-.29,.29-.29h11.42c.15,0,.29,.15,.29,.29v2.18c0,.15-.15,.29-.29,.29h-7.88l-.15,3.94h7.31c.15,0,.29,.15,.29,.29v2.18c0,.15-.15,.29-.29,.29h-7.31l.15,4.89h8.07c.15,0,.29,.15,.29,.29v2.18c0,.15-.15,.29-.29,.29h-11.62Z"/><path class="cls-1" d="M94.92,232.98v6.04c0,.15-.15,.29-.29,.29h-2.94c-.15,0-.29-.15-.29-.29l.15-8.27-.15-8.27c0-.15,.15-.29,.29-.29h3.96c.17,0,.34,.1,.44,.24l6.8,12.06v-.29l-.12-4.84v-6.87c0-.15,.15-.29,.29-.29h2.94c.15,0,.29,.15,.29,.29l-.15,8.27,.15,8.27c0,.15-.15,.29-.29,.29h-4.11c-.17,0-.34-.1-.44-.24l-6.7-11.96,.05,.98,.12,4.89Z"/><path class="cls-1" d="M109.91,239.32c-.15,0-.29-.15-.29-.29l.17-8.27-.17-8.27c0-.15,.15-.29,.29-.29h5.99c4.92,0,9.08,2.64,9.08,8.68s-4.21,8.44-9.03,8.44h-6.04Zm3.55-2.76h2.69c2.76,0,4.99-1.64,4.99-5.7s-2.2-5.9-5.09-5.9h-2.59s-.15,2.89-.15,5.72,.15,5.85,.15,5.87Z"/><path class="cls-1" d="M128.11,239.32c-.15,0-.29-.15-.29-.29l.17-8.27-.17-8.27c0-.15,.15-.29,.29-.29h3.25c.15,0,.29,.15,.29,.29l-.15,8.05,.15,6.02h6.85c.15,0,.29,.15,.29,.29v2.18c0,.15-.15,.29-.29,.29h-10.4Z"/><path class="cls-1" d="M146.38,239.02c0,.15-.15,.29-.29,.29h-3.28c-.15,0-.29-.15-.29-.29l.15-5.5-5.75-11.06c-.07-.12,0-.27,.15-.27h3.67c.17,0,.34,.1,.42,.27l3.47,7.83,3.5-7.83c.07-.17,.24-.27,.42-.27h3.33c.15,0,.22,.15,.15,.27l-5.77,11.08,.15,5.48Z"/></g><g><path class="cls-1" d="M95.35,189.28C42.83,189.64,.76,147.52,.01,96.09-.76,43.19,41.76,.18,94.28,0c52.11-.18,94.18,41.52,95,93.05,.85,53.14-41.76,95.88-93.93,96.23ZM3.24,94.5c-.18,50.42,40.97,91.89,92.04,91.57,49.47-.31,90.51-40.29,90.79-90.9,.28-50.7-40.66-91.87-91.19-91.94C44.29,3.15,3.3,43.98,3.24,94.5Z"/><g><path class="cls-1" d="M53.44,66.46s-.03,0-.04,0c-1.88,0-3.75,.79-5.16,2.18-1.37,1.35-2.15,3.15-2.15,4.94,0,4.09,3.15,7.1,7.49,7.17,3.9,.07,6.98-3.27,7.07-7.57,.03-1.46-.67-3.04-1.92-4.32-1.45-1.49-3.42-2.38-5.29-2.4Zm-.07,11.2c-2.23,0-4.04-1.82-4.04-4.05s1.82-4.04,4.05-4.04,4.04,1.82,4.04,4.05-1.82,4.04-4.05,4.04Z"/><path class="cls-1" d="M154.48,82.77c-.39-.67-.44-1.51-.14-2.23,.46-1.12,.94-2.23,1.41-3.3,1.34-3.07,2.61-5.98,3.26-9.05,1.1-5.19,1.58-10.64,2.04-15.92,.1-1.11,.19-2.22,.3-3.33,.09-1.02-.6-2.62-1.11-2.86-.5-.23-1.88,.34-2.64,1.1-6.14,6.12-12.47,12.57-18.81,19.18-1.47,1.53-2.6,1.65-4.3,.45-7.89-5.57-18.45-12.51-30.17-16.75-8.25-2.99-16.2-4.48-23.95-4.49-6.99,0-13.83,1.19-20.6,3.61-14.33,5.11-26.56,15.11-36.34,29.75-.5,.75-.59,2.54-.18,3.48,.76,1.73,1.94,3.3,3.09,4.82l.35,.47c8.4,11.18,18.21,19.11,29.15,23.57,4.09,1.67,8.42,2.86,12.62,4.02,.76,.21,1.51,.42,2.27,.63,.1,.03,.2,.04,.3,.04h.44s0,.45,0,.45c0,3.99-.01,8.28,.03,12.57,.05,5.55,2.58,9.55,7.51,11.9,1.92,.91,2.29,2.12,2.26,3.78-.08,4.65-.04,13.11-.01,16.53,0,.49,.4,.88,.89,.88h11.82c.24,.01,.47-.08,.64-.25,.17-.17,.26-.41,.25-.65-.08-3.17-.06-6.4-.05-9.52,.01-2.36,.03-4.8,0-7.19-.02-1.81,.57-2.76,2.2-3.53,4.93-2.32,7.5-6.4,7.63-12.13,.05-2.42,.04-4.89,.04-7.28,0-1.06,0-2.11,0-3.17,0-1.35,0-2.69,.01-4.04v-2.51s.31-.1,.31-.1c.51-.17,1.03-.35,1.54-.53,10.39-3.7,19.8-10.02,27.8-15.65,1.84-1.29,2.97-1.19,4.5,.43,4.73,5.02,9.63,10.02,14.37,14.85,1.33,1.36,2.66,2.72,3.99,4.08,.08,.09,.17,.17,.26,.25,.16,.15,.32,.3,.46,.47,.26,.3,.61,.47,.97,.47h.89c.74,0,1.35-.68,1.36-1.52,.13-13.72-1.93-23.52-6.66-31.76Zm-93.4,26.25c-.35,0-.75-.09-1.23-.28-11.56-4.62-21.25-11.97-28.8-21.82-.94-1.23-1.89-2.44-2.9-3.71l-.47-.59c-.69-.87-.72-2.17-.06-3.08,9.33-13.03,20-21.64,32.62-26.3,1.04-.39,2.2,.08,2.69,1.09,8.41,17.57,8.48,35.39,.2,52.97-.49,1.03-1.05,1.72-2.05,1.72Zm39.58,9.68c0,3.2,0,6.4-.02,9.6-.02,5.2-2.16,8.19-6.94,9.68-2.14,.67-2.88,1.77-2.85,4.21,.07,5.09,.08,9.8,.05,14.4,0,.98-.81,1.77-1.79,1.77h-2.18c-.98,0-1.78-.8-1.78-1.78,0-4.75,.01-9.62,.06-14.88,.02-2.06-.63-3-2.5-3.6-5.12-1.64-7.21-4.54-7.21-10.04,0-3.89,0-7.78,0-11.67v-.45s5.78,0,5.78,0v2.85c0,2.94,0,5.99-.03,8.98-.02,2.07,.5,2.84,1.92,2.86,.62,0,1.07-.14,1.39-.45,.43-.43,.64-1.19,.64-2.34,0-3.81,0-7.63,.01-11.44v-.45s4.56,0,4.56,0c.11,0,.21-.01,.31-.04l.91-.24v.58c0,3.84,0,7.68-.02,11.52,0,2.02,.57,2.85,1.97,2.87,.61,0,1.07-.13,1.38-.44,.42-.42,.62-1.17,.61-2.34-.03-2.95-.02-5.95,0-8.84,0-1.18,0-2.36,0-3.53v-.86s.33-.09,.33-.09c1.93-.52,3.42-.93,4.84-1.34l.57-.17v5.67Zm54.96-12.2c-.79,.3-1.74-.31-3.28-2.11l-.97-.99c-3.95-4.03-8.04-8.19-11.98-12.37-1.65-1.75-2.78-1.87-4.68-.53-10.16,7.2-21.28,14.43-33.78,18.53-6.92,2.27-13.81,3.41-20.6,3.4-3.84,0-7.64-.37-11.39-1.11-.13-.02-.25-.05-.38-.08-.63-.14-1.17-.58-1.49-1.19-.35-.68-.37-1.52-.07-2.22,7.88-18.27,7.91-35.78,.07-53.54-.31-.71-.29-1.52,.06-2.21,.32-.63,.88-1.07,1.54-1.21,5.7-1.23,11.54-1.52,17.86-.88,12.87,1.3,25.41,6.41,40.68,16.57,2.21,1.47,4.41,3.03,6.54,4.54l1.53,1.08c1.36,.97,2.42,.8,3.76-.6,4.03-4.19,8.86-9.15,14.22-14.13,.68-.63,1.6-.77,2.41-.36,.9,.46,1.4,1.44,1.28,2.51-.2,1.68-.4,2.96-.65,4.14-1.27,6.02-2.77,11.78-7.24,16.01-1.16,1.1-.47,2.32,.3,3.15,5.22,5.57,6.55,12.75,7.39,19.05v.05c.06,2.88-.27,4.19-1.13,4.51Z"/></g></g></svg>