<?xml version="1.0" encoding="UTF-8"?><svg id="Layer_1" xmlns="http://www.w3.org/2000/svg" viewBox="0 0 189.29 230.34"><defs><style>.cls-1{fill:#23d16a;}</style></defs><g><path class="cls-1" d="M21.81,229.9c-.17,0-.35-.17-.35-.35l.2-9.78-.2-9.78c0-.17,.17-.35,.35-.35h3.85c.17,0,.35,.17,.35,.35l-.17,9.52,.17,7.12h8.1c.17,0,.35,.17,.35,.35v2.58c0,.17-.17,.35-.35,.35h-12.3Z"/><path class="cls-1" d="M45.75,230.34c-6.19,0-10.22-4.31-10.22-10.51s3.99-10.62,10.22-10.62,10.25,4.08,10.25,10.62c0,6.19-4.05,10.51-10.25,10.51Zm.03-3.39c3.65,0,5.67-2.69,5.67-7.12s-2-7.24-5.7-7.24-5.67,2.72-5.67,7.24,2.06,7.12,5.7,7.12Z"/><path class="cls-1" d="M74.34,229.9c-.2,0-.38-.14-.43-.35l-3.18-13.81-2.89,13.81c-.03,.2-.2,.35-.41,.35h-4.78c-.2,0-.38-.14-.43-.35l-4.57-19.57c-.06-.17,.09-.35,.26-.35h3.79c.2,0,.38,.14,.41,.35l3.18,15.95,3.04-15.95c.03-.2,.2-.35,.41-.35h4.43c.2,0,.38,.14,.41,.35l3.18,16.15,3.18-16.15c.03-.2,.2-.35,.41-.35h3.5c.17,0,.32,.17,.26,.35l-4.69,19.57c-.06,.2-.23,.35-.43,.35h-4.63Z"/><path class="cls-1" d="M102.97,230.34c-6.22,0-10.07-4.31-10.07-10.48s3.94-10.65,10.04-10.65c4.34,0,7.87,1.77,9.06,7.12,.03,.17-.12,.35-.29,.35h-3.62c-.2,0-.38-.14-.43-.35-.58-2.37-2.17-3.73-4.78-3.73-3.53,0-5.44,2.72-5.44,7.24s1.97,7.12,5.41,7.12c2.81,0,4.34-1.51,4.89-4.2,.03-.2,.2-.35,.41-.35h3.71c.17,0,.32,.17,.29,.35-1.16,5.47-4.43,7.58-9.18,7.58Z"/><path class="cls-1" d="M128.76,229.9c-.2,0-.41-.14-.46-.32l-1.53-4.83h-7.58l-1.48,4.83c-.09,.17-.26,.32-.46,.32h-3.79c-.17,0-.29-.17-.23-.32l6.8-19.63c.06-.17,.26-.32,.46-.32h5.24c.2,0,.41,.14,.46,.32l6.66,19.63c.06,.14-.06,.32-.23,.32h-3.85Zm-3.1-8.65l-2.78-8.65-2.63,8.65h5.41Z"/><path class="cls-1" d="M144.82,225.39l-2-3.01h-2.92l.14,7.18c0,.17-.17,.35-.35,.35h-3.85c-.17,0-.35-.17-.35-.35l.17-9.78-.17-9.78c0-.17,.17-.35,.35-.35h8.16c5.07,0,7.99,2.14,7.99,6.37,0,2.98-1.65,5.04-4.52,5.9l4.98,7.7c.09,.12,0,.29-.14,.29h-4.43c-.2,0-.41-.12-.52-.29l-2.55-4.23Zm-.64-12.53h-4.2l-.09,6.31h4.4c1.85,0,3.44-.87,3.44-3.07s-1.3-3.24-3.56-3.24Z"/><path class="cls-1" d="M164.68,229.9h-8.8c-.17,0-.35-.17-.35-.35l.2-9.78-.2-9.78c0-.17,.17-.35,.35-.35h8.65c4.14,0,7.21,1.51,7.21,5.01,0,2.43-1.3,3.85-3.56,4.49,2.78,.61,4.11,2.4,4.11,4.63,0,4.4-3.73,6.14-7.61,6.14Zm-4.78-12.1h4.69c1.71,0,2.75-.87,2.75-2.52,0-1.79-1.24-2.58-2.75-2.58h-4.52l-.17,5.09Zm.17,9.03h4.52c1.82,0,3.24-.69,3.24-3.07,0-2.14-1.48-2.89-3.24-2.89h-4.69l.17,5.96Z"/></g><path class="cls-1" d="M95.46,189.28C42.94,189.7,.82,147.63,.01,96.2-.82,43.31,41.65,.24,94.17,0c52.11-.24,94.23,41.41,95.11,92.94,.91,53.14-41.65,95.93-93.82,96.34ZM3.24,94.6c-.12,50.42,41.08,91.84,92.14,91.46,49.47-.37,90.46-40.39,90.68-91.01,.22-50.7-40.77-91.82-91.29-91.84C44.18,3.21,3.24,44.08,3.24,94.6Z"/><path class="cls-1" d="M116.69,98.55c.57-.49,1.13-.98,1.69-1.48v3.74c-5.39,4.82-11.22,9.16-17.44,13.22-5.26,3.27-10.97,6.47-16.97,9.16-5.39,2.42-10.93,4.48-16.69,6.06-.38,.1-.77,.18-1.16,.27-.75,.17-1.32-.16-1.66-.97-.3-.73,.07-1.39,.81-1.62,3.61-1.14,7.28-2.14,10.81-3.47,9.99-3.75,19.33-8.71,27.93-14.92,4.35-3.14,8.57-6.49,12.68-9.98Zm-5.45,23.94c-1.03,.71-2.08,1.41-3.12,2.1-6.48,4.04-13.12,7.8-20.21,10.76-3.61,1.51-7.26,2.96-11,4.18-8,2.61-16.26,4.39-25.06,4.16-4.63-.12-9.26-.78-13.77-3.08-4.61-2.35-8.1-5.85-9.21-11.3-.51-2.5-.91-5.05-.94-7.52-.15-12.3,3.68-22.43,11.42-30.28,1.98-2.01,4.37-3.57,6.65-5.22,.79-.57,1.33-1.15,1.6-2.19,1.3-4.99,3.45-9.39,6.89-12.86,3.83-3.85,8.55-5.83,14.17-5.88,.89,0,1.33-.28,1.66-1.15,1.06-2.79,2.9-4.95,4.9-6.93,3.65-3.6,7.85-6.26,13.05-7.16,3.18-.55,6.41-.2,9.66,1.29,.31,.14,.85,.14,1.04-.06,5.12-5.49,11.86-7.31,19.44-7.15,7.36,.15,14.58,1.86,21.51,6.08,3.52,2.14,6.68,4.85,9.32,8.2,2.73,3.46,3.49,7.35,3.24,11.35-.07,1.1-.2,2.18-.39,3.22-.7-.53-1.51-.91-2.39-1.13,.17-1,.28-2.03,.32-3.09,.12-3.28-.53-6.42-2.88-9.23-2.85-3.4-6.18-6.04-9.9-8.01-7.55-4-15.21-5.23-22.91-4.57-1.3,.11-2.56,.4-4.07,.64,3.74,3.2,5.81,7.12,7.39,11.33,.78,2.07,.34,4.06-1.03,5.09-1.61,1.22-3.41,1.06-5.28-.34-3.38-2.54-6.8-5.02-10.2-7.54-4.28-3.18-8.7-4.45-13.29-3.22-1.72,.46-3.39,1.01-4.93,2.02,1.29,.77,2.49,1.39,3.61,2.17,4.67,3.2,8.22,7.59,11.37,12.38,1.28,1.94,1.33,4.18,.17,5.66-1.21,1.55-3.19,1.84-5.18,.76-.95-.52-1.89-1.08-2.85-1.57-4.98-2.55-10.1-4.26-15.31-5.61-7.03-1.82-12.97-.41-18.17,4.2,.55,.04,.83,.06,1.1,.07,8.66,.4,15.44,5.23,20.99,12.87,1.26,1.74,1.26,3.85,.22,5.39-.98,1.45-2.85,1.96-4.64,1.2-8.22-3.51-16.49-4.59-24.79-4.69-.47,0-.96,.18-1.36,.41-2.96,1.7-5.62,3.82-7.93,6.36-3.98,4.36-6.81,9.58-8.38,15.67-1.53,5.95-2.03,12.13-.57,18.68,.4,1.81,1.05,3.54,2.29,5.05,2.29,2.78,5.14,4.38,8.24,5.4,5.73,1.89,11.34,1.91,16.88,1.34,8.72-.91,16.92-3.3,24.83-6.49,5.78-2.33,11.34-5.06,16.71-8.14,3.15-1.8,6.22-3.72,9.22-5.75,.07,.09,.14,.17,.21,.25l1.64,1.86Zm-10.14-69.22c1.05,.71,1.98,1.28,2.86,1.94,2.86,2.13,5.71,4.28,8.56,6.43,.79,.6,1.56,.82,2.3,.31,.63-.43,.92-1.11,.63-1.96-1.22-3.57-2.89-6.9-5.68-9.58-1.25-1.2-2.5-2.03-3.87-.87-.07,.06-.17,.07-.25,.1-1.78,.8-3.24,2.01-4.55,3.62Zm-28.6,12.34c.46,.13,.73,.22,1.01,.28,6.85,1.54,13.53,3.87,19.94,7.59,1.15,.67,2.02,.63,2.57-.09,.59-.75,.58-1.7-.25-2.79-1.86-2.45-3.69-4.95-5.73-7.22-2.55-2.84-5.52-5.04-8.96-6.29-.74-.27-1.27-.18-1.79,.26-2.08,1.74-4.03,3.62-5.51,5.99-.43,.69-.81,1.43-1.28,2.27Zm-22.69,19.51c.53,.02,.75,.03,.97,.04,8.03,.31,16.02,1.45,23.94,4.87,.92,.4,1.66,.2,2.15-.53,.47-.71,.38-1.57-.21-2.37-.72-.97-1.47-1.92-2.26-2.82-4.75-5.4-10.28-8.58-16.76-8.55-4.29,.02-3.32-.42-5.2,3.04-1.04,1.92-1.72,4.09-2.63,6.32Zm88.87,59.01l22-25.34c.75-.86,.92-2.04,.44-3.08-.47-1.03-1.46-1.67-2.58-1.67h-7.54v-35.68c0-1.58-1.27-2.86-2.84-2.86h-23.17c-1.57,0-2.84,1.28-2.84,2.86v35.68h-7.6c-1.12,0-2.11,.64-2.58,1.67-.47,1.04-.3,2.22,.44,3.08l22,25.34c.54,.62,1.32,.98,2.14,.98s1.6-.36,2.14-.98Zm-16.25-26.96c1.57,0,2.84-1.28,2.84-2.86v-35.68h22.6v35.68c0,1.58,1.27,2.86,2.84,2.86h7.23l-21.4,24.65-21.4-24.65h7.29Z"/></svg>