<?xml version="1.0" encoding="UTF-8"?><svg id="Layer_1" xmlns="http://www.w3.org/2000/svg" viewBox="0 0 189.29 220.61"><defs><style>.cls-1{fill:#23d16a;}</style></defs><g><path class="cls-1" d="M17.19,214.27h-2.94l.12,5.65c0,.15-.15,.29-.29,.29h-3.28c-.15,0-.29-.15-.29-.29l.17-8.27-.17-8.27c0-.15,.15-.29,.29-.29h6.41c4.13,0,6.51,1.86,6.51,5.5s-2.45,5.68-6.53,5.68Zm.17-8.46h-3.03l-.12,5.75h3.25c1.44,0,2.67-.83,2.67-2.89s-1-2.86-2.76-2.86Z"/><path class="cls-1" d="M26.75,220.22c-.15,0-.29-.15-.29-.29l.17-8.27-.17-8.27c0-.15,.15-.29,.29-.29h3.25c.15,0,.29,.15,.29,.29l-.15,8.05,.15,6.02h6.85c.15,0,.29,.15,.29,.29v2.18c0,.15-.15,.29-.29,.29h-10.4Z"/><path class="cls-1" d="M52.36,220.22c-.17,0-.34-.12-.39-.27l-1.3-4.09h-6.41l-1.25,4.09c-.07,.15-.22,.27-.39,.27h-3.2c-.15,0-.24-.15-.2-.27l5.75-16.59c.05-.15,.22-.27,.39-.27h4.43c.17,0,.34,.12,.39,.27l5.63,16.59c.05,.12-.05,.27-.2,.27h-3.25Zm-2.62-7.31l-2.35-7.31-2.23,7.31h4.57Z"/><path class="cls-1" d="M61.59,213.88v6.04c0,.15-.15,.29-.29,.29h-2.94c-.15,0-.29-.15-.29-.29l.15-8.27-.15-8.27c0-.15,.15-.29,.29-.29h3.96c.17,0,.34,.1,.44,.24l6.8,12.06v-.29l-.12-4.84v-6.87c0-.15,.15-.29,.29-.29h2.94c.15,0,.29,.15,.29,.29l-.15,8.27,.15,8.27c0,.15-.15,.29-.29,.29h-4.11c-.17,0-.34-.1-.44-.24l-6.7-11.96,.05,.98,.12,4.89Z"/><path class="cls-1" d="M80.62,220.22c-.15,0-.29-.15-.29-.29l.22-8.27-.17-5.8h-4.62c-.15,0-.29-.15-.29-.29v-2.18c0-.15,.15-.29,.29-.29h13.11c.15,0,.29,.15,.29,.29v2.18c0,.15-.15,.29-.29,.29h-4.62l-.17,5.8,.22,8.27c0,.15-.15,.29-.29,.29h-3.38Z"/><path class="cls-1" d="M104.93,220.22h-7.44c-.15,0-.29-.15-.29-.29l.17-8.27-.17-8.27c0-.15,.15-.29,.29-.29h7.31c3.5,0,6.09,1.27,6.09,4.23,0,2.05-1.1,3.25-3.01,3.79,2.35,.51,3.47,2.03,3.47,3.91,0,3.72-3.16,5.19-6.43,5.19Zm-4.04-10.23h3.96c1.44,0,2.32-.73,2.32-2.13,0-1.52-1.05-2.18-2.32-2.18h-3.82l-.15,4.31Zm.15,7.63h3.82c1.54,0,2.74-.59,2.74-2.59,0-1.81-1.25-2.45-2.74-2.45h-3.96l.15,5.04Z"/><path class="cls-1" d="M125.6,220.22c-.17,0-.34-.12-.39-.27l-1.3-4.09h-6.41l-1.25,4.09c-.07,.15-.22,.27-.39,.27h-3.2c-.15,0-.24-.15-.2-.27l5.75-16.59c.05-.15,.22-.27,.39-.27h4.43c.17,0,.34,.12,.39,.27l5.63,16.59c.05,.12-.05,.27-.2,.27h-3.25Zm-2.62-7.31l-2.35-7.31-2.23,7.31h4.57Z"/><path class="cls-1" d="M137.91,220.61c-4.48,0-7.56-1.86-7.75-5.87,0-.15,.15-.29,.29-.29h3.3c.17,0,.29,.12,.32,.29,.27,1.86,1.15,3.08,3.91,3.08,2.23,0,3.45-.66,3.45-2.27,0-3.87-10.94-.81-10.94-7.61,0-3.2,2.5-5.21,6.87-5.21,3.99,0,6.73,1.54,7.27,5.14,.02,.15-.1,.29-.24,.29h-3.3c-.2,0-.32-.12-.34-.29-.22-1.49-1.47-2.32-3.52-2.32-1.76,0-3.03,.61-3.03,2.03,0,3.64,10.98,.68,10.98,7.46,0,3.62-2.79,5.58-7.27,5.58Z"/><path class="cls-1" d="M148.11,220.22c-.15,0-.29-.15-.29-.29l.17-8.27-.17-8.27c0-.15,.15-.29,.29-.29h11.42c.15,0,.29,.15,.29,.29v2.18c0,.15-.15,.29-.29,.29h-7.88l-.15,3.94h7.31c.15,0,.29,.15,.29,.29v2.18c0,.15-.15,.29-.29,.29h-7.31l.15,4.89h8.07c.15,0,.29,.15,.29,.29v2.18c0,.15-.15,.29-.29,.29h-11.62Z"/><path class="cls-1" d="M163.23,220.22c-.15,0-.29-.15-.29-.29l.17-8.27-.17-8.27c0-.15,.15-.29,.29-.29h5.99c4.92,0,9.08,2.64,9.08,8.68s-4.21,8.44-9.03,8.44h-6.04Zm3.55-2.76h2.69c2.76,0,4.99-1.64,4.99-5.7s-2.2-5.9-5.09-5.9h-2.59s-.15,2.89-.15,5.72,.15,5.85,.15,5.87Z"/></g><g><path class="cls-1" d="M95.46,189.28C42.94,189.7,.82,147.63,.01,96.2-.82,43.31,41.65,.24,94.17,0c52.11-.24,94.23,41.41,95.11,92.94,.91,53.14-41.65,95.93-93.82,96.34ZM3.24,94.6c-.12,50.42,41.08,91.84,92.14,91.46,49.47-.37,90.46-40.39,90.68-91.01,.22-50.7-40.77-91.82-91.29-91.84C44.18,3.21,3.24,44.08,3.24,94.6Z"/><path class="cls-1" d="M138.22,60.24c1.07,.59,2.1,.21,2.81-1.05,2.85-5.03,6.91-9.47,12.42-13.58,.9-.67,1.36-1.45,1.27-2.13-.1-.68-.77-1.3-1.83-1.69-13.65-5.01-26.26-6.31-38.55-3.98-14.59,2.77-25.16,10.42-31.4,22.74-7.1,14.01-3.93,28.21,8.09,36.17,.76,.5,1.33,1.56,1.33,2.47,.04,7.11,.04,14.04,.04,21.37v8.1s-1.88-2.35-1.88-2.35c-.45-.56-.89-1.1-1.3-1.62l-.15-.18c-1.26-1.55-2.34-2.89-3.38-4.3-.56-.76-.58-1.93-.36-2.7,3.45-12.1-2.41-23.25-14.25-27.11-9.97-3.26-20.04-2.03-30.76,3.76-5.32,2.87-9.7,6.51-13.03,10.82-.68,.88-.91,1.78-.64,2.47,.22,.56,.79,.95,1.6,1.09,4.66,.79,8.62,3.26,12.47,7.74,.52,.61,1.04,1.22,1.56,1.84,1.95,2.31,3.97,4.68,6.12,6.82,4.73,4.69,11.41,7.31,17.87,7.01,6.04-.28,11.36-2.96,15.37-7.74,.29-.35,.67-.41,.9-.44,.07-.01,.15-.02,.25-.05l.68-.16,.41,.56c4.2,5.75,8.96,12.26,8.49,20.9-.07,1.36-.05,2.75-.03,4.09v.09c0,.6,.02,1.2,.02,1.8,0,.74,0,1.48,0,2.22,0,1.71-.02,3.48,.03,5.2,.02,.73,.25,1.32,.65,1.7,.35,.33,.82,.49,1.37,.47,1.46-.04,1.82-1.22,1.87-2.19,.02-.4,.01-.81,.01-1.22,0-.19,0-.37,0-.55v-56.92s2.33,.5,2.33,.5c.64,.14,1.21,.26,1.77,.38,7.47,1.68,15.02,.18,21.27-4.21,6.26-4.41,10.96-11.53,13.22-20.05,.27-1.01-.22-1.76-1.39-2.09-1.02-.3-1.76,.05-2.24,1.05-.3,.61-.52,1.28-.75,1.98l-.24-.03h0l.22,.07c-.12,.36-.24,.72-.37,1.08-2.39,6.49-5.85,11.27-10.59,14.62-6.73,4.77-14.22,5.6-22.26,2.48l-.79-.3,.12-.83c1.39-9.45,3.71-20.09,13.75-26.81,.92-.61,1.18-1.72,.61-2.63-.59-.95-1.58-1.19-2.66-.64-.59,.3-1.2,.69-1.86,1.2-5.17,3.96-8.86,9.5-11.27,16.94-.63,1.93-1.1,3.9-1.6,5.98l-.02,.07c-.23,.95-.46,1.9-.7,2.85l-.42,1.61-1.28-1.06c-6.74-5.59-9.27-12.73-7.52-21.24,2.53-12.27,10.12-21.15,22.57-26.38,8.78-3.69,18.73-4.58,30.44-2.71,2.29,.37,4.52,.88,6.67,1.37,.96,.22,1.85,.43,2.71,.61l1.61,.35-.99,1.32c-.9,1.21-1.8,2.4-2.7,3.57-2.2,2.91-4.26,5.63-6.25,8.46-.42,.6-.57,1.22-.44,1.78,.12,.5,.46,.94,.97,1.22Zm-56.15,54.06h0s-.29,1.7-.29,1.7l-1.99-1.47c-.44-.32-.81-.6-1.18-.88-5.57-4.32-11.1-7.08-16.9-8.42-.44-.1-.87-.2-1.27-.25-1.58-.19-2.5,.28-2.74,1.4-.12,.54-.04,1.04,.23,1.43,.33,.5,.93,.84,1.74,1,4.96,.94,9.69,3.04,14.44,6.4,1.18,.83,2.27,1.71,3.42,2.65,.52,.42,1.05,.85,1.59,1.27l.79,.62-.59,.82c-3.42,4.78-8.56,7.53-14.1,7.53-2.92,0-5.8-.73-8.57-2.18-2.58-1.35-4.77-3.36-6.9-5.32l-.83-.76c-1.26-1.14-2.32-2.48-3.34-3.77-.38-.48-.73-.92-1.09-1.36-3.62-4.39-6.99-7.09-10.92-8.77l-1.44-.61,1.11-1.11c3.55-3.55,7.78-6.34,12.94-8.55,8.34-3.56,16.08-4.08,23.68-1.57,9.12,3.01,13.79,10.74,12.2,20.19Z"/></g></svg>