<?xml version="1.0" encoding="UTF-8"?><svg id="Layer_1" xmlns="http://www.w3.org/2000/svg" viewBox="0 0 189.29 223.88"><defs><style>.cls-1{fill:#23d16a;}</style></defs><g><path class="cls-1" d="M34.41,223.44c-.17,0-.35-.17-.35-.35l.2-9.78-.2-9.78c0-.17,.17-.35,.35-.35h3.85c.17,0,.35,.17,.35,.35l-.17,9.52,.17,7.12h8.1c.17,0,.35,.17,.35,.35v2.58c0,.17-.17,.35-.35,.35h-12.3Z"/><path class="cls-1" d="M58.35,223.88c-6.19,0-10.22-4.31-10.22-10.51s3.99-10.62,10.22-10.62,10.25,4.08,10.25,10.62c0,6.19-4.05,10.51-10.25,10.51Zm.03-3.39c3.65,0,5.67-2.69,5.67-7.12s-2-7.24-5.7-7.24-5.67,2.72-5.67,7.24,2.06,7.12,5.7,7.12Z"/><path class="cls-1" d="M86.95,223.44c-.2,0-.38-.14-.43-.35l-3.18-13.81-2.89,13.81c-.03,.2-.2,.35-.41,.35h-4.78c-.2,0-.38-.14-.43-.35l-4.57-19.57c-.06-.17,.09-.35,.26-.35h3.79c.2,0,.38,.14,.41,.35l3.18,15.95,3.04-15.95c.03-.2,.2-.35,.41-.35h4.43c.2,0,.38,.14,.41,.35l3.18,16.15,3.18-16.15c.03-.2,.2-.35,.41-.35h3.5c.17,0,.32,.17,.26,.35l-4.69,19.57c-.06,.2-.23,.35-.43,.35h-4.63Z"/><path class="cls-1" d="M106.72,223.44c-.17,0-.35-.17-.35-.35l.2-9.78-.2-9.78c0-.17,.17-.35,.35-.35h13.08c.17,0,.35,.17,.35,.35v2.58c0,.17-.17,.35-.35,.35h-8.89l-.17,5.56h8.65c.17,0,.35,.17,.35,.35v2.58c0,.17-.17,.35-.35,.35h-8.65l.17,7.82c0,.17-.17,.35-.35,.35h-3.85Z"/><path class="cls-1" d="M135.86,223.44c-.2,0-.41-.14-.46-.32l-1.53-4.83h-7.58l-1.48,4.83c-.09,.17-.26,.32-.46,.32h-3.79c-.17,0-.29-.17-.23-.32l6.8-19.63c.06-.17,.26-.32,.46-.32h5.24c.2,0,.41,.14,.46,.32l6.66,19.63c.06,.14-.06,.32-.23,.32h-3.85Zm-3.1-8.65l-2.78-8.65-2.63,8.65h5.41Z"/><path class="cls-1" d="M145.12,223.44c-.17,0-.35-.17-.35-.35l.26-9.78-.2-6.86h-5.47c-.17,0-.35-.17-.35-.35v-2.58c0-.17,.17-.35,.35-.35h15.51c.17,0,.35,.17,.35,.35v2.58c0,.17-.17,.35-.35,.35h-5.47l-.2,6.86,.26,9.78c0,.17-.17,.35-.35,.35h-3.99Z"/></g><g><path class="cls-1" d="M95.46,189.28C42.94,189.7,.82,147.63,.01,96.2-.82,43.31,41.65,.24,94.17,0c52.11-.24,94.23,41.41,95.11,92.94,.91,53.14-41.65,95.93-93.82,96.34ZM3.24,94.6c-.12,50.42,41.08,91.84,92.14,91.46,49.47-.37,90.46-40.39,90.68-91.01,.22-50.7-40.77-91.82-91.29-91.84C44.18,3.21,3.24,44.08,3.24,94.6Z"/><path class="cls-1" d="M92.55,77.35c-.1-1.39-.16-2.71-.3-4.01-.49-4.83-1.47-9.56-3.3-14.08-1.27-3.14-2.86-6.1-5.35-8.47-1.65-1.57-3.55-2.56-5.88-2.62-1.08-.03-1.92-.99-1.9-2.07,.01-1.11,.88-2.02,2.01-2.04,2.83-.04,5.27,1.02,7.46,2.74,2.28,1.8,3.99,4.08,5.44,6.57,.09,.15,.18,.3,.31,.52,.2-.24,.38-.45,.56-.67,3.1-3.79,6.46-7.33,10.29-10.4,3.4-2.73,7.03-5.09,11.3-6.22,7.01-1.87,13.31-.34,18.96,4.12,.64,.51,1.06,1.13,1.03,1.97-.15,4.91-1.25,9.55-3.98,13.69-2.94,4.46-7.19,6.87-12.42,7.63-4.7,.68-9.36,.26-13.97-.73-2.75-.59-5.44-1.41-8.16-2.12-.18-.05-.36-.1-.64-.18,1.67,5.36,2.46,10.78,2.67,16.46,.99-.3,1.95-.5,2.84-.87,.93-.38,1.83-.86,2.69-1.39,4.42-2.74,9.16-4.59,14.39-4.93,6.22-.4,11.84,1.29,16.75,5.16,5.05,3.97,8.2,9.24,10.15,15.27,2.12,6.55,2.59,13.27,1.77,20.09-1.16,9.74-4.56,18.63-10.4,26.53-4.43,6-9.87,10.81-16.79,13.78-6.14,2.63-12.43,3.19-18.86,1.14-2.95-.94-5.95-1.02-8.9-.07-7.06,2.28-13.85,1.46-20.44-1.69-6.02-2.88-10.88-7.19-14.91-12.44-5.63-7.34-9.09-15.63-10.59-24.73-1.26-7.62-.96-15.17,1.42-22.57,1.78-5.54,4.61-10.45,9.02-14.35,3.88-3.44,8.4-5.49,13.58-6.02,6.5-.67,12.42,1.09,17.93,4.39,1.84,1.1,3.69,2.13,5.82,2.54,.08,.02,.17,.03,.39,.06Zm-44.89,27.29c.27,2.67,.4,5.36,.84,7.99,1.47,8.79,4.86,16.78,10.47,23.76,3.83,4.77,8.4,8.63,14.1,11.01,5.15,2.15,10.4,2.59,15.78,.86,3.83-1.23,7.72-1.25,11.56-.02,5.96,1.92,11.69,1.18,17.23-1.47,6.15-2.95,10.9-7.53,14.74-13.08,4.53-6.55,7.33-13.79,8.54-21.65,1.03-6.66,.79-13.25-1.22-19.71-1.65-5.3-4.31-9.97-8.71-13.48-4.53-3.61-9.7-5.01-15.44-4.29-4.07,.51-7.76,2.04-11.19,4.23-2.95,1.89-6.19,2.87-9.67,2.88-3.48,0-6.72-.96-9.67-2.85-3.51-2.24-7.28-3.78-11.45-4.29-3.62-.44-7.11,0-10.46,1.45-5.58,2.41-9.29,6.68-11.83,12.06-2.48,5.25-3.43,10.82-3.62,16.61Zm46.55-48.04c.3,.11,.47,.2,.66,.25,2.3,.66,4.58,1.41,6.91,1.96,4.71,1.11,9.46,1.81,14.32,1.12,4.3-.61,7.68-2.66,9.95-6.41,1.73-2.86,2.54-6.01,2.9-9.3,.05-.51-.06-.8-.48-1.09-5.87-3.93-11.95-4.17-18.15-.91-6.52,3.44-11.41,8.73-16.1,14.38Zm-39.32,43.92c.06,1.13,.94,2,2.04,2.02,1.12,.02,2.02-.86,2.08-2.03,0-.2,.01-.4,.02-.59,.33-5.49,2.7-9.81,7.42-12.72,2.12-1.31,4.46-1.91,6.96-1.95,1.28-.02,2.18-.92,2.17-2.09,0-1.18-.93-2.11-2.19-2.05-1.29,.07-2.6,.16-3.85,.45-8.41,1.97-14.4,9.45-14.66,18.18,0,.26-.01,.53,0,.79Z"/></g></svg>