<?xml version="1.0" encoding="UTF-8"?><svg id="Layer_1" xmlns="http://www.w3.org/2000/svg" viewBox="0 0 189.41 224.02"><defs><style>.cls-1{fill:#23d16a;}.cls-2{fill:none;stroke:#23d16a;stroke-linecap:round;stroke-linejoin:round;stroke-width:4px;}</style></defs><path class="cls-1" d="M63.97,121.5c.05,.69-.21,1.16-.44,1.42-.38,.44-.91,.65-1.53,.65-.9,0-1.97-.46-3-1.34h0c-1.73-1.49-2.29-3.28-1.36-4.37,.32-.38,.8-.61,1.35-.65,.94-.07,2.13,.43,3.18,1.34,1.06,.91,1.74,2.01,1.81,2.95Zm-9.32-9.39c-1.73-1.48-3.59-1.77-4.53-.69-.93,1.09-.36,2.89,1.37,4.37,.66,.56,1.39,.99,2.07,1.2,.35,.11,.65,.15,.92,.15,.86,0,1.34-.43,1.54-.66,.93-1.08,.37-2.88-1.37-4.37Zm15.02,12.88c-1.06-.91-2.25-1.41-3.18-1.34-.7,.05-1.12,.38-1.35,.66-.92,1.09-.36,2.88,1.37,4.37h0c.66,.57,1.39,.99,2.07,1.2,.35,.11,.65,.15,.92,.15,.86,0,1.34-.43,1.54-.66,.93-1.09,.36-2.88-1.37-4.37Zm30.74-2.85c-2.28,.65-5.19,.63-7.71,.61,0,0-.02,0-.02,0-1.33-.01-2.42,1.02-2.51,2.34-.28,4.39-2.02,8.83-4.36,11.57-2.5,2.92-5.63,3.83-8.56,3.83-1.57,0-3.09-.26-4.42-.62-5.31-1.42-11.66-5.29-18.89-11.48h0c-7.41-6.35-12.25-12.1-14.4-17.08-2.2-5.09-1.74-9.51,1.38-13.15,2.4-2.8,6.29-5.05,10.41-6.02,.11-.03,.22-.05,.32-.07,1.29-.28,2.14-1.52,1.93-2.83,0,0,0-.02,0-.03-.61-3.78-1.38-8.49,.65-10.85,.73-.85,3.64-4.86,7.32-9.94,6.44-8.88,16.17-22.3,23.85-32.06,2.87-3.65,6.66-5.76,9.67-5.37,5.02,.66,8.36,1.3,9.94,1.91,3.49,1.37,15.45,10.59,19.57,14.11,4.17,3.58,13.33,12.48,15.21,15.71,.44,.77,.94,1.98,1.45,3.39-1.1-.83-2.45-1.33-3.91-1.37-.08-.17-.16-.33-.24-.46-1.52-2.62-10.01-11.02-14.54-14.91-4.95-4.24-16.04-12.54-18.67-13.57-1.28-.5-4.64-1.13-9.21-1.73-1.58-.2-4.43,1.18-6.81,4.21-7.64,9.72-17.35,23.11-23.78,31.97-4.01,5.54-6.67,9.19-7.48,10.14-1.09,1.26-.34,5.85,.06,8.32,.07,.46,.14,.89,.2,1.28,.15,1,.9,1.78,1.88,2.03,1.61,.4,3.04,1.12,4.23,2.14l23.43,20.09c1.25,1.07,2.15,2.4,2.76,3.88,.38,.91,1.29,1.49,2.28,1.49,.4,0,.83,0,1.29,0,1.42,.01,3.54,.03,5.3-.19l2.38,2.7Zm-16.04-5.52l-23.42-20.09c-2.01-1.72-5.25-2.21-8.89-1.35-3.45,.81-6.8,2.74-8.76,5.02-2.31,2.69-2.6,5.92-.89,9.88,1.96,4.54,6.53,9.91,13.57,15.95h0c6.87,5.89,12.81,9.54,17.66,10.84,4.31,1.16,7.52,.43,9.8-2.23,4.05-4.73,5.23-14.31,.93-18Zm42.52,24.62l23.68-26.84c.79-.9,.98-2.14,.49-3.24-.49-1.09-1.55-1.77-2.75-1.77h-8.16v-37.81c0-1.66-1.35-3.02-3.02-3.02h-24.94c-1.66,0-3.02,1.35-3.02,3.02v37.81h-8.22c-1.2,0-2.25,.68-2.75,1.77-.49,1.1-.31,2.34,.49,3.24l23.68,26.84c.57,.65,1.4,1.02,2.26,1.02s1.69-.37,2.26-1.02Zm-17.45-28.57c1.66,0,3.02-1.35,3.02-3.02v-37.81h24.41v37.81c0,1.66,1.35,3.02,3.02,3.02h7.83l-23.08,26.17-23.09-26.17h7.9Z"/><path class="cls-1" d="M95.57,189.28C43.06,189.7,.93,147.63,.13,96.2-.7,43.31,41.77,.24,94.28,0c52.11-.24,94.23,41.41,95.11,92.94,.91,53.14-41.65,95.93-93.82,96.34ZM3.36,94.6c-.12,50.42,41.08,91.84,92.14,91.46,49.47-.37,90.46-40.39,90.68-91.01,.22-50.7-40.77-91.82-91.29-91.84C44.3,3.21,3.35,44.08,3.36,94.6Z"/><path class="cls-1" d="M95.57,189.28C43.06,189.7,.93,147.63,.13,96.2-.7,43.31,41.77,.24,94.28,0c52.11-.24,94.23,41.41,95.11,92.94,.91,53.14-41.65,95.93-93.82,96.34ZM3.36,94.6c-.12,50.42,41.08,91.84,92.14,91.46,49.47-.37,90.46-40.39,90.68-91.01,.22-50.7-40.77-91.82-91.29-91.84C44.3,3.21,3.35,44.08,3.36,94.6Z"/><path class="cls-2" d="M63.12,159.08l.03,.38-.03-.38c-.03-.39-.05-.71-.05-.71,0,0,.02,.32,.05,.71Z"/><path class="cls-2" d="M57.82,143.65c.03,.36,.23,.64,.46,.62,.22-.01,.39-.32,.36-.68-.03-.36-.23-.64-.46-.62-.22,.02-.39,.32-.36,.68Z"/><path class="cls-2" d="M52.34,147c.01,.17-.01,.32-.06,.32-.05,0-.1-.14-.11-.31-.01-.17,.01-.32,.06-.32,.05,0,.1,.14,.11,.31Z"/><path class="cls-2" d="M58.76,152.83c.02,.21-.05,.38-.14,.39-.1,0-.19-.15-.2-.36-.02-.21,.05-.38,.14-.39,.1-.01,.19,.15,.2,.36Z"/><path class="cls-2" d="M54.51,163.2c.01,.15-.06,.26-.15,.27-.1,0-.18-.1-.19-.25-.01-.14,.06-.26,.15-.27,.1,0,.18,.1,.2,.25Z"/><path class="cls-2" d="M52.75,154.63c.01,.14-.06,.26-.15,.27-.09,0-.18-.1-.19-.25-.01-.15,.06-.26,.15-.28,.1,0,.18,.11,.19,.25Z"/><path class="cls-2" d="M55.61,135.66c.01,.14-.06,.27-.15,.27-.1,0-.18-.1-.19-.24-.01-.15,.06-.26,.15-.27,.1,0,.18,.1,.19,.25Z"/><g><path class="cls-1" d="M.35,223.56c-.17,0-.35-.17-.35-.35l.2-9.78-.2-9.78c0-.17,.17-.35,.35-.35h3.85c.17,0,.35,.17,.35,.35l-.17,9.52,.17,7.12H12.65c.17,0,.35,.17,.35,.35v2.58c0,.17-.17,.35-.35,.35H.35Z"/><path class="cls-1" d="M24.28,224c-6.19,0-10.22-4.31-10.22-10.51s3.99-10.62,10.22-10.62,10.25,4.08,10.25,10.62c0,6.19-4.05,10.51-10.25,10.51Zm.03-3.39c3.65,0,5.67-2.69,5.67-7.12s-2-7.24-5.7-7.24-5.67,2.72-5.67,7.24,2.06,7.12,5.7,7.12Z"/><path class="cls-1" d="M52.88,223.56c-.2,0-.38-.14-.43-.35l-3.18-13.81-2.89,13.81c-.03,.2-.2,.35-.41,.35h-4.78c-.2,0-.38-.14-.43-.35l-4.57-19.57c-.06-.17,.09-.35,.26-.35h3.79c.2,0,.38,.14,.41,.35l3.18,15.95,3.04-15.95c.03-.2,.2-.35,.41-.35h4.43c.2,0,.38,.14,.41,.35l3.18,16.15,3.18-16.15c.03-.2,.2-.35,.41-.35h3.5c.17,0,.32,.17,.26,.35l-4.69,19.57c-.06,.2-.23,.35-.43,.35h-4.63Z"/><path class="cls-1" d="M80.7,224.02c-5.3,0-8.94-2.2-9.18-6.95,0-.17,.17-.35,.35-.35h3.91c.2,0,.35,.14,.38,.35,.32,2.2,1.36,3.65,4.63,3.65,2.63,0,4.08-.78,4.08-2.69,0-4.57-12.94-.96-12.94-9,0-3.79,2.95-6.17,8.13-6.17,4.72,0,7.96,1.82,8.6,6.08,.03,.17-.12,.35-.29,.35h-3.91c-.23,0-.38-.14-.41-.35-.26-1.77-1.74-2.75-4.17-2.75-2.08,0-3.59,.72-3.59,2.4,0,4.31,13,.81,13,8.83,0,4.28-3.3,6.6-8.6,6.6Z"/><path class="cls-1" d="M102.06,224c-6.19,0-10.22-4.31-10.22-10.51s3.99-10.62,10.22-10.62,10.25,4.08,10.25,10.62c0,6.19-4.05,10.51-10.25,10.51Zm.03-3.39c3.65,0,5.67-2.69,5.67-7.12s-2-7.24-5.7-7.24-5.67,2.72-5.67,7.24,2.06,7.12,5.7,7.12Z"/><path class="cls-1" d="M116.01,223.56c-.17,0-.35-.17-.35-.35l.2-9.78-.2-9.78c0-.17,.17-.35,.35-.35h7.09c5.82,0,10.74,3.13,10.74,10.28s-4.98,9.99-10.68,9.99h-7.15Zm4.2-3.27h3.18c3.27,0,5.9-1.94,5.9-6.74s-2.61-6.98-6.02-6.98h-3.07s-.17,3.42-.17,6.77,.17,6.92,.17,6.95Z"/><path class="cls-1" d="M137.69,223.56c-.17,0-.35-.17-.35-.35l.2-9.78-.2-9.78c0-.17,.17-.35,.35-.35h3.82c.17,0,.35,.17,.35,.35l-.2,9.78,.2,9.78c0,.17-.17,.35-.35,.35h-3.82Z"/><path class="cls-1" d="M154.04,224c-5.38,0-8.25-2.81-8.22-7.96l.06-5.5-.17-6.89c0-.17,.17-.35,.35-.35h3.97c.17,0,.35,.17,.35,.35l-.14,6.77,.03,5.59c0,2.89,1.16,4.49,3.79,4.49,2.84,0,4.08-1.59,4.08-4.49v-5.5l-.12-6.86c0-.17,.17-.35,.35-.35h3.53c.17,0,.35,.17,.35,.35l-.12,6.89v5.5c0,5.15-2.69,7.96-8.08,7.96Z"/><path class="cls-1" d="M169.96,216.44v6.77c0,.17-.17,.35-.35,.35h-3.33c-.17,0-.35-.17-.35-.35l.17-9.78-.17-9.78c0-.17,.17-.35,.35-.35h5.21c.2,0,.4,.14,.46,.32l5.38,14.53,5.07-14.53c.06-.17,.26-.32,.46-.32h4.86c.17,0,.35,.17,.35,.35l-.17,9.78,.17,9.78c0,.17-.17,.35-.35,.35h-3.76c-.17,0-.35-.17-.35-.35v-6.77l.14-6.22,.03-.9-4.92,13.92c-.06,.17-.26,.32-.46,.32h-2.78c-.2,0-.41-.14-.46-.32l-5.41-14.56,.06,1.59,.14,6.17Z"/></g></svg>