<?xml version="1.0" encoding="UTF-8"?><svg id="Layer_1" xmlns="http://www.w3.org/2000/svg" viewBox="0 0 189.29 223.98"><defs><style>.cls-1{fill:#23d16a;}</style></defs><g><path class="cls-1" d="M95.46,189.28C42.94,189.7,.82,147.63,.01,96.2-.82,43.31,41.65,.24,94.17,0c52.11-.24,94.23,41.41,95.11,92.94,.91,53.14-41.65,95.93-93.82,96.34ZM3.24,94.6c-.12,50.42,41.08,91.84,92.14,91.46,49.47-.37,90.46-40.39,90.68-91.01,.22-50.7-40.77-91.82-91.29-91.84C44.18,3.21,3.24,44.08,3.24,94.6Z"/><g><path class="cls-1" d="M66,59.9L32.18,28.83c-1.06-.97-2.71-.9-3.68,.16-.97,1.06-.9,2.71,.16,3.68l33.07,30.38c1.37-1.07,2.8-2.12,4.28-3.15Z"/><path class="cls-1" d="M166.19,151.96l-34.72-31.9c-.86,1.34-1.74,2.65-2.65,3.93-.1,.14-.21,.28-.31,.43l34.15,31.37c.5,.46,1.13,.69,1.76,.69,.7,0,1.41-.28,1.92-.84,.97-1.06,.9-2.71-.16-3.68Z"/></g><g><path class="cls-1" d="M73.1,136.94c.24-.05,.48-.1,.73-.16,.58-.13,1.21-.26,1.83-.41,13.08-3.1,24.24-10.14,34.13-21.52,8.1-9.33,14.98-20.37,21.04-33.75,1.33-2.94,2.56-5.99,3.75-8.93l.09-.21c.24-.6,.27-1.13,.08-1.55-.16-.35-.47-.62-.9-.77-.2-.07-.39-.11-.57-.11-.62,0-1.13,.43-1.5,1.29-.02,.05-.04,.11-.07,.16-.03,.07-.06,.14-.09,.21-.85,1.86-1.7,3.75-2.52,5.59-1.83,4.11-3.73,8.36-5.8,12.43-4.88,9.6-10.77,18.13-17.52,25.37-7.69,8.25-15.01,13.41-23.04,16.23-2.51,.88-5.11,1.62-7.62,2.34-.8,.23-1.59,.46-2.39,.69-1.01,.3-1.42,.84-1.33,1.75,.09,.85,.61,1.27,1.69,1.35Z"/><path class="cls-1" d="M116.24,54.93c-.18-.08-.4-.12-.65-.12-.44,0-.98,.13-1.61,.38-1.27,.5-2.5,1.01-3.67,1.5-14.74,6.19-26.65,13.43-36.41,22.11-.17,.15-.35,.31-.53,.46-.68,.59-1.38,1.19-1.91,1.89-.3,.39-.43,1.18-.27,1.69,.08,.27,.41,.51,.78,.78,.15,.11,.3,.22,.46,.35,.19-.12,.37-.24,.55-.35,.43-.27,.8-.5,1.11-.78,6.92-6.45,13.87-11.46,21.25-15.33,4.84-2.53,9.89-4.85,14.77-7.09,1.69-.77,3.37-1.55,5.06-2.33,1.86-.87,2.06-1.54,1.76-2.36-.15-.4-.37-.67-.69-.81Z"/><path class="cls-1" d="M63.26,91.33s-.05,0-.08,0c-.89,0-1.94,1.05-2.02,2.03-.03,.42,.1,.81,.37,1.11,.28,.31,.68,.49,1.13,.49,.98,.02,2.01-1,2.05-2.02,.03-.77-.68-1.56-1.45-1.62Z"/><path class="cls-1" d="M64.27,132.68c.44,.15,.97,.09,1.53-.2,1.72-.86,3.12-1.62,4.42-2.38,13.42-7.89,24.32-18.75,32.31-27.32,9.95-10.67,19.53-22.89,29.3-37.35,1.11-1.64,2.26-3.34,3.34-5.09,.36-.58,.42-1.19,.16-1.68-.28-.52-.91-.84-1.72-.88-.09,.08-.19,.18-.3,.28-.36,.33-.81,.73-1.13,1.21-14.38,21.85-28.17,38.64-43.42,52.84-8.3,7.74-16.27,13.49-24.36,17.58-1,.51-1.36,1.32-.97,2.17,.19,.4,.48,.68,.85,.81Z"/><path class="cls-1" d="M59.71,116.96c-1.09,1.81-2.18,3.8-3.41,6.26-.27,.54-.27,1.1,0,1.55,.29,.48,.87,.78,1.59,.81,.07-.05,.15-.11,.23-.17,.3-.22,.68-.49,.93-.85,.31-.44,.54-.92,.78-1.44,.14-.29,.28-.59,.44-.88,5.47-10.05,13.18-19.64,24.28-30.17,12.38-11.75,26.48-22.82,44.39-34.83,.64-.43,1.29-.86,1.94-1.28,1.03-.68,2.1-1.38,3.13-2.09,.44-.3,.72-.71,.79-1.14,.06-.37-.03-.73-.27-1.05-.35-.47-.76-.71-1.23-.71-.29,0-.59,.09-.92,.27-.25,.14-.49,.29-.77,.48-21.64,14.23-38.25,27.27-52.29,41.06-8.23,8.09-14.64,16-19.59,24.18Z"/><path class="cls-1" d="M51.92,113.49c-.16,.6-.31,1.19-.48,1.79,.07,1,.58,1.66,1.4,1.81,.88,.16,1.6-.44,1.83-1.54,1.03-4.72,2.75-9.39,5.25-14.28,.45-.88,.75-2.06-.4-2.68-.4-.22-.81-.26-1.18-.13-.49,.17-.9,.62-1.2,1.3-1.41,3.26-2.78,6.46-4.02,9.75-.49,1.29-.85,2.66-1.2,3.98Z"/><path class="cls-1" d="M137.21,43.11c-.48,0-.97,.03-1.47,.09-4.64,.58-9.56,1.4-14.61,2.42-15.62,3.15-28.92,7.67-40.66,13.83-13.2,6.92-22.82,15.2-29.39,25.32-6.83,10.5-9.27,20.99-7.45,32.08,1.37,8.34,4.55,14.74,9.71,19.58,8.95,8.38,19.16,9.61,24.45,9.6,7.47-.22,13.07-1.37,18.72-3.86,10.18-4.49,18.78-11.82,26.29-22.42,6.01-8.48,10.87-18.38,14.88-30.25,3.65-10.84,6.33-22.5,8.18-35.66,.47-3.32-.36-6.26-2.34-8.26-1.59-1.61-3.78-2.46-6.29-2.46Zm5.51,9.93c-.79,5.72-1.81,11.56-3.03,17.36-2.57,12.22-6.43,23.64-11.48,33.97-7.13,14.56-15.52,24.56-26.39,31.45-7.37,4.67-15.11,7.04-23.02,7.04-.17,0-.34,0-.51,0-7.62-.1-14.5-2.35-20.45-6.7-5.1-3.73-8.53-9.26-10.49-16.9-.55-2.17-.82-4.4-1.02-6.04-.07-.59-.13-1.09-.19-1.49v-.02s0-.02,0-.02c.17-10.04,2.9-18.53,8.61-26.72,6.32-9.06,15.28-16.54,27.38-22.85,12.55-6.54,27.11-11.25,44.5-14.39,2.66-.48,5.38-.87,8.01-1.25l1.16-.17c2.28-.33,4.24,.18,5.5,1.44,1.25,1.24,1.74,3.07,1.44,5.3Z"/><path class="cls-1" d="M67.57,85.87h-.01c-.98,0-1.99,1.08-1.99,2.13,0,.39,.15,.76,.42,1.03,.29,.29,.69,.45,1.13,.44,.94,0,1.95-1.03,1.96-2,0-.5-.13-.91-.41-1.19-.26-.27-.65-.41-1.11-.41Z"/></g></g><g><path class="cls-1" d="M30.52,216.05v7.15c0,.17-.17,.35-.35,.35h-3.47c-.17,0-.35-.17-.35-.35l.17-9.78-.17-9.78c0-.17,.17-.35,.35-.35h4.69c.2,0,.41,.12,.52,.29l8.05,14.27v-.35l-.14-5.73v-8.13c0-.17,.17-.35,.35-.35h3.47c.17,0,.35,.17,.35,.35l-.17,9.78,.17,9.78c0,.17-.17,.35-.35,.35h-4.86c-.2,0-.41-.12-.52-.29l-7.93-14.15,.06,1.16,.14,5.79Z"/><path class="cls-1" d="M56.02,223.98c-5.38,0-8.25-2.81-8.22-7.96l.06-5.5-.17-6.89c0-.17,.17-.35,.35-.35h3.97c.17,0,.35,.17,.35,.35l-.14,6.77,.03,5.59c0,2.89,1.16,4.49,3.79,4.49,2.84,0,4.08-1.59,4.08-4.49v-5.5l-.12-6.86c0-.17,.17-.35,.35-.35h3.53c.17,0,.35,.17,.35,.35l-.12,6.89v5.5c0,5.15-2.69,7.96-8.08,7.96Z"/><path class="cls-1" d="M73.04,223.55c-.17,0-.35-.17-.35-.35l.26-9.78-.2-6.86h-5.47c-.17,0-.35-.17-.35-.35v-2.58c0-.17,.17-.35,.35-.35h15.51c.17,0,.35,.17,.35,.35v2.58c0,.17-.17,.35-.35,.35h-5.47l-.2,6.86,.26,9.78c0,.17-.17,.35-.35,.35h-3.99Z"/><path class="cls-1" d="M93.01,223.55c-.17,0-.35-.17-.35-.35l.2-9.78-.2-9.78c0-.17,.17-.35,.35-.35h13.08c.17,0,.35,.17,.35,.35v2.58c0,.17-.17,.35-.35,.35h-8.89l-.17,5.56h8.65c.17,0,.35,.17,.35,.35v2.58c0,.17-.17,.35-.35,.35h-8.65l.17,7.82c0,.17-.17,.35-.35,.35h-3.85Z"/><path class="cls-1" d="M118.95,219.03l-2-3.01h-2.92l.14,7.18c0,.17-.17,.35-.35,.35h-3.85c-.17,0-.35-.17-.35-.35l.17-9.78-.17-9.78c0-.17,.17-.35,.35-.35h8.16c5.07,0,7.99,2.14,7.99,6.37,0,2.98-1.65,5.04-4.52,5.9l4.98,7.7c.09,.12,0,.29-.14,.29h-4.43c-.2,0-.41-.12-.52-.29l-2.55-4.23Zm-.64-12.53h-4.2l-.09,6.31h4.4c1.85,0,3.44-.87,3.44-3.07s-1.3-3.24-3.56-3.24Z"/><path class="cls-1" d="M130,223.55c-.17,0-.35-.17-.35-.35l.2-9.78-.2-9.78c0-.17,.17-.35,.35-.35h13.52c.17,0,.35,.17,.35,.35v2.58c0,.17-.17,.35-.35,.35h-9.32l-.17,4.66h8.65c.17,0,.35,.17,.35,.35v2.58c0,.17-.17,.35-.35,.35h-8.65l.17,5.79h9.55c.17,0,.35,.17,.35,.35v2.58c0,.17-.17,.35-.35,.35h-13.75Z"/><path class="cls-1" d="M147.89,223.55c-.17,0-.35-.17-.35-.35l.2-9.78-.2-9.78c0-.17,.17-.35,.35-.35h13.52c.17,0,.35,.17,.35,.35v2.58c0,.17-.17,.35-.35,.35h-9.32l-.17,4.66h8.65c.17,0,.35,.17,.35,.35v2.58c0,.17-.17,.35-.35,.35h-8.65l.17,5.79h9.55c.17,0,.35,.17,.35,.35v2.58c0,.17-.17,.35-.35,.35h-13.75Z"/></g></svg>