<?xml version="1.0" encoding="UTF-8"?><svg id="Layer_1" xmlns="http://www.w3.org/2000/svg" viewBox="0 0 189.29 220.39"><defs><style>.cls-1{fill:#23d16a;}</style></defs><g><path class="cls-1" d="M95.46,189.28C42.94,189.7,.82,147.63,.01,96.2-.82,43.31,41.65,.24,94.17,0c52.11-.24,94.23,41.41,95.11,92.94,.91,53.14-41.65,95.93-93.82,96.34ZM3.24,94.6c-.12,50.42,41.08,91.84,92.14,91.46,49.47-.37,90.46-40.39,90.68-91.01,.22-50.7-40.77-91.82-91.29-91.84C44.18,3.21,3.24,44.08,3.24,94.6Z"/><g><path class="cls-1" d="M158.93,89.6c-.66,2.14-1.04,4.43-2.03,6.4-4.26,8.45-11.45,12.32-20.7,12.64-2.25,.08-4.51-.17-6.77-.18-.54,0-1.25,.21-1.6,.58-1.84,1.94-3.59,3.97-5.38,5.97-.19,.22-.37,.46-.58,.66-.86,.86-1.88,.96-2.69,.28-.82-.69-.96-1.73-.19-2.68,1.31-1.63,2.71-3.19,4.08-4.77,.43-.5,.89-.97,1.3-1.42-1.5-1.31-2.91-2.54-4.47-3.9-1.96,2.09-4.03,4.16-5.94,6.36-3.53,4.06-6.49,8.51-8.77,13.4-.12,.27-.25,.53-.39,.78-.74,1.26-1.83,1.79-3.14,1.55-1.25-.23-2.18-1.19-2.3-2.63-.28-3.42-.49-6.85-.73-10.27-.14-1.95-.28-3.9-.41-5.88h-6.75c-.2,2.74-.4,5.44-.58,8.14-.17,2.46-.33,4.93-.5,7.39-.13,1.9-.93,2.99-2.38,3.24-1.49,.26-2.6-.37-3.42-2.12-2.66-5.7-6.21-10.81-10.46-15.41-1.5-1.63-3.19-3.08-4.86-4.68-1.3,1.2-2.7,2.48-4.01,3.68,2.6,3.22,5.34,6.38,7.81,9.75,4.42,6.02,8.05,12.5,9.29,19.95,.64,3.85,.54,7.83,.69,11.75,.09,2.18,.13,2.39,2.2,3.21,4.2,1.65,8.59,1.84,12.98,1.37,2.22-.24,4.4-.93,6.56-1.53,1.34-.37,1.92-1.26,1.89-2.8-.09-4.3-.24-8.62,.74-12.87,1.2-5.19,3.36-9.97,6.11-14.5,.66-1.09,1.75-1.35,2.69-.76,.9,.57,1.09,1.61,.51,2.77-1.35,2.73-2.83,5.41-4.02,8.21-1.7,4.01-2.41,8.25-2.3,12.62,.05,1.72-.05,3.44,.02,5.15,.09,2.31-.86,4.11-2.9,4.99-2.28,.98-4.68,1.89-7.11,2.28-5.12,.82-10.27,.65-15.28-.92-.95-.3-1.87-.72-2.76-1.18-2.12-1.09-3.16-2.77-3.14-5.26,.03-3.43,.06-6.89-.37-10.27-.78-6.02-3.29-11.46-6.48-16.58-3.03-4.85-6.66-9.23-10.71-13.26-.34-.33-1.02-.52-1.51-.47-6.02,.59-12.01,.71-17.57-2.14-7.99-4.09-12.59-10.57-12.21-19.7,.37-8.95,5.46-14.92,13.46-18.51,1.02-.46,1.29-.87,1.18-2-.45-4.75,.76-9.12,3.39-13.09,.61-.92,1.67-1.15,2.53-.67,.9,.51,1.14,1.53,.67,2.62-.86,1.98-1.82,3.94-2.48,5.99-.67,2.09-.56,4.3-.12,6.46,.47,2.31,.18,2.87-2.09,3.61-5.05,1.65-8.91,4.7-11.22,9.55-3.2,6.74-1.49,14.6,4.2,19.49,3.28,2.82,7.06,4.54,11.38,4.72,3.04,.12,6.09-.06,9.13-.3,1.9-.15,3.44-1.24,4.7-2.67,2.96-3.37,6.6-4.16,10.8-2.84,3.27,1.02,6.47,2.35,9.81,2.98,8.45,1.59,16.81,1.09,24.98-1.85,1.98-.71,4.06-1.37,6.14-1.56,2.45-.23,4.78,.67,6.42,2.57,2.15,2.5,4.84,3.61,8.03,3.75,4.62,.2,9.23,.26,13.52-1.88,5.51-2.74,9.15-6.98,10.1-13.18,1.02-6.68-2.57-13.76-8.56-16.97-1.35-.73-2.8-1.31-4.24-1.85-2.06-.78-2.38-1.3-1.96-3.48,1.08-5.64-.41-10.6-4.39-14.65-5.66-5.75-12.55-7.15-20.22-5.03-2.41,.67-2.75,.6-3.91-1.53-4.02-7.39-12.57-11.31-20.87-9.57-5.95,1.25-10.5,4.37-13.35,9.84-.92,1.76-1.53,1.97-3.45,1.36-5.31-1.69-10.47-1.31-15.48,1.15-.37,.18-.74,.39-1.14,.53-1.06,.38-2.01,.03-2.45-.88-.45-.92-.17-1.91,.82-2.47,3.02-1.71,6.27-2.91,9.74-2.99,2.65-.06,5.32,.34,7.97,.63,.72,.08,1.14-.01,1.54-.65,6.91-11.36,22.98-14.11,33.78-5.99,2,1.5,3.58,3.6,5.18,5.57,.69,.85,1.15,1.2,2.31,.97,9.56-1.93,17.67,.61,23.85,8.31,3.36,4.19,4.68,9.1,4.06,14.47-.07,.65,0,1.02,.71,1.33,7.68,3.25,12.61,8.75,13.9,17.18,.02,.12,.11,.22,.17,.33v4.27Zm-43.57,12.8c-.56,.16-.77,.19-.95,.27-3.77,1.51-7.62,2.72-11.65,3.28-.7,.1-.73,.49-.68,1.06,.16,2.17,.26,4.34,.41,6.5,.11,1.68,.25,3.36,.38,5.03,3.48-5.84,7.57-11.08,12.5-16.14Zm-27.72,4.06c-4.38-1.24-8.61-2.44-12.97-3.68,4.68,4.8,8.71,10.01,12.16,15.79,.28-4.1,.55-8.2,.81-12.1Z"/><path class="cls-1" d="M68.71,66.15c1.04,.12,2.08,.21,3.1,.38,1.24,.21,1.9,1.08,1.74,2.19-.15,1.05-.95,1.72-2.19,1.52-2.71-.43-5.32-.29-7.86,.82-5.93,2.59-8.84,9.63-6.46,15.66,.14,.35,.29,.7,.4,1.05,.37,1.14-.03,2.14-.98,2.51-1.04,.41-2.02-.03-2.54-1.19-1.42-3.18-1.87-6.48-1.19-9.92,1.51-7.62,8.15-13.01,15.98-13.03Z"/><path class="cls-1" d="M120.6,66.15c11.78,0,19.64,12.23,14.7,22.93-.54,1.17-1.47,1.62-2.53,1.22-1.02-.39-1.46-1.49-.93-2.73,1.57-3.63,1.58-7.23-.16-10.79-2.33-4.77-7.69-7.49-12.93-6.61-.37,.06-.75,.1-1.12,.11-1.07,.04-1.77-.46-1.96-1.53-.19-1.02,.39-1.84,1.46-2.16,.2-.06,.41-.08,.62-.11,.95-.11,1.91-.22,2.86-.34Z"/><path class="cls-1" d="M94.57,48.58c6.4,.26,11.23,3.1,14.35,8.75,.66,1.2,.45,2.28-.51,2.85-1.04,.61-2.08,.28-2.79-1.03-1.92-3.52-4.78-5.73-8.72-6.54-4.89-1.01-10.3,1.38-12.82,5.69-.21,.36-.39,.74-.62,1.09-.7,1.04-1.63,1.34-2.57,.85-.97-.52-1.26-1.57-.7-2.7,1.35-2.73,3.34-4.91,5.92-6.51,2.57-1.6,5.39-2.45,8.46-2.45Z"/></g></g><g><path class="cls-1" d="M12.79,220.02c-.15,0-.29-.15-.29-.29l.17-8.27-.17-8.27c0-.15,.15-.29,.29-.29h3.25c.15,0,.29,.15,.29,.29l-.15,8.05,.15,6.02h6.85c.15,0,.29,.15,.29,.29v2.18c0,.15-.15,.29-.29,.29H12.79Z"/><path class="cls-1" d="M33.03,220.39c-5.24,0-8.64-3.65-8.64-8.88s3.38-8.98,8.64-8.98,8.66,3.45,8.66,8.98c0,5.24-3.42,8.88-8.66,8.88Zm.02-2.86c3.08,0,4.79-2.28,4.79-6.02s-1.69-6.12-4.82-6.12-4.79,2.3-4.79,6.12,1.74,6.02,4.82,6.02Z"/><path class="cls-1" d="M57.19,220.02c-.17,0-.32-.12-.37-.29l-2.69-11.67-2.45,11.67c-.02,.17-.17,.29-.34,.29h-4.04c-.17,0-.32-.12-.37-.29l-3.87-16.54c-.05-.15,.07-.29,.22-.29h3.2c.17,0,.32,.12,.34,.29l2.69,13.48,2.57-13.48c.02-.17,.17-.29,.34-.29h3.74c.17,0,.32,.12,.34,.29l2.69,13.65,2.69-13.65c.02-.17,.17-.29,.34-.29h2.96c.15,0,.27,.15,.22,.29l-3.96,16.54c-.05,.17-.2,.29-.37,.29h-3.91Z"/><path class="cls-1" d="M81.39,220.39c-5.26,0-8.51-3.65-8.51-8.86s3.33-9,8.49-9c3.67,0,6.65,1.49,7.66,6.02,.02,.15-.1,.29-.24,.29h-3.06c-.17,0-.32-.12-.37-.29-.49-2.01-1.83-3.16-4.04-3.16-2.98,0-4.6,2.3-4.6,6.12s1.66,6.02,4.57,6.02c2.37,0,3.67-1.27,4.13-3.55,.02-.17,.17-.29,.34-.29h3.13c.15,0,.27,.15,.24,.29-.98,4.62-3.74,6.41-7.75,6.41Z"/><path class="cls-1" d="M103.18,220.02c-.17,0-.34-.12-.39-.27l-1.3-4.09h-6.41l-1.25,4.09c-.07,.15-.22,.27-.39,.27h-3.2c-.15,0-.24-.15-.2-.27l5.75-16.59c.05-.15,.22-.27,.39-.27h4.43c.17,0,.34,.12,.39,.27l5.63,16.59c.05,.12-.05,.27-.2,.27h-3.25Zm-2.62-7.31l-2.35-7.31-2.23,7.31h4.57Z"/><path class="cls-1" d="M109.18,220.02c-.15,0-.29-.15-.29-.29l.17-8.27-.17-8.27c0-.15,.15-.29,.29-.29h3.25c.15,0,.29,.15,.29,.29l-.15,8.05,.15,6.02h6.85c.15,0,.29,.15,.29,.29v2.18c0,.15-.15,.29-.29,.29h-10.4Z"/><path class="cls-1" d="M129.41,220.39c-5.24,0-8.64-3.65-8.64-8.88s3.38-8.98,8.64-8.98,8.66,3.45,8.66,8.98c0,5.24-3.42,8.88-8.66,8.88Zm.02-2.86c3.08,0,4.79-2.28,4.79-6.02s-1.69-6.12-4.82-6.12-4.79,2.3-4.79,6.12,1.74,6.02,4.82,6.02Z"/><path class="cls-1" d="M148.78,216.2l-1.69-2.54h-2.47l.12,6.07c0,.15-.15,.29-.29,.29h-3.25c-.15,0-.29-.15-.29-.29l.15-8.27-.15-8.27c0-.15,.15-.29,.29-.29h6.9c4.28,0,6.75,1.81,6.75,5.38,0,2.52-1.39,4.26-3.82,4.99l4.21,6.51c.07,.1,0,.24-.12,.24h-3.74c-.17,0-.34-.1-.44-.24l-2.15-3.57Zm-.54-10.59h-3.55l-.07,5.33h3.72c1.57,0,2.91-.73,2.91-2.59s-1.1-2.74-3.01-2.74Z"/><path class="cls-1" d="M158.25,220.02c-.15,0-.29-.15-.29-.29l.17-8.27-.17-8.27c0-.15,.15-.29,.29-.29h3.23c.15,0,.29,.15,.29,.29l-.17,8.27,.17,8.27c0,.15-.15,.29-.29,.29h-3.23Z"/><path class="cls-1" d="M165.51,220.02c-.15,0-.29-.15-.29-.29l.17-8.27-.17-8.27c0-.15,.15-.29,.29-.29h11.42c.15,0,.29,.15,.29,.29v2.18c0,.15-.15,.29-.29,.29h-7.88l-.15,3.94h7.31c.15,0,.29,.15,.29,.29v2.18c0,.15-.15,.29-.29,.29h-7.31l.15,4.89h8.07c.15,0,.29,.15,.29,.29v2.18c0,.15-.15,.29-.29,.29h-11.62Z"/></g></svg>