<?xml version="1.0" encoding="UTF-8"?><svg id="Layer_1" xmlns="http://www.w3.org/2000/svg" viewBox="0 0 189.29 243.78"><defs><style>.cls-1{fill:#23d16a;}</style></defs><g><path class="cls-1" d="M62.93,215.59h-2.94l.12,5.65c0,.15-.15,.29-.29,.29h-3.28c-.15,0-.29-.15-.29-.29l.17-8.27-.17-8.27c0-.15,.15-.29,.29-.29h6.41c4.13,0,6.51,1.86,6.51,5.5s-2.45,5.68-6.53,5.68Zm.17-8.46h-3.03l-.12,5.75h3.25c1.44,0,2.67-.83,2.67-2.89s-1-2.86-2.76-2.86Z"/><path class="cls-1" d="M82.06,221.53c-.17,0-.34-.12-.39-.27l-1.3-4.09h-6.41l-1.25,4.09c-.07,.15-.22,.27-.39,.27h-3.2c-.15,0-.24-.15-.2-.27l5.75-16.59c.05-.15,.22-.27,.39-.27h4.43c.17,0,.34,.12,.39,.27l5.63,16.59c.05,.12-.05,.27-.2,.27h-3.25Zm-2.62-7.31l-2.35-7.31-2.23,7.31h4.57Z"/><path class="cls-1" d="M88.05,221.53c-.15,0-.29-.15-.29-.29l.17-8.27-.17-8.27c0-.15,.15-.29,.29-.29h3.25c.15,0,.29,.15,.29,.29l-.15,8.05,.15,6.02h6.85c.15,0,.29,.15,.29,.29v2.18c0,.15-.15,.29-.29,.29h-10.4Z"/><path class="cls-1" d="M101.41,221.53c-.15,0-.29-.15-.29-.29l.17-8.27-.17-8.27c0-.15,.15-.29,.29-.29h11.42c.15,0,.29,.15,.29,.29v2.18c0,.15-.15,.29-.29,.29h-7.88l-.15,3.94h7.31c.15,0,.29,.15,.29,.29v2.18c0,.15-.15,.29-.29,.29h-7.31l.15,4.89h8.07c.15,0,.29,.15,.29,.29v2.18c0,.15-.15,.29-.29,.29h-11.62Z"/><path class="cls-1" d="M123.89,221.9c-5.24,0-8.64-3.65-8.64-8.88s3.38-8.98,8.64-8.98,8.66,3.45,8.66,8.98c0,5.24-3.42,8.88-8.66,8.88Zm.02-2.86c3.08,0,4.79-2.28,4.79-6.02s-1.69-6.12-4.82-6.12-4.79,2.3-4.79,6.12,1.74,6.02,4.82,6.02Z"/><path class="cls-1" d="M37.92,243.78c-.15,0-.29-.15-.29-.29l.17-8.27-.17-8.27c0-.15,.15-.29,.29-.29h11.06c.15,0,.29,.15,.29,.29v2.18c0,.15-.15,.29-.29,.29h-7.51l-.15,4.7h7.31c.15,0,.29,.15,.29,.29v2.18c0,.15-.15,.29-.29,.29h-7.31l.15,6.61c0,.15-.15,.29-.29,.29h-3.25Z"/><path class="cls-1" d="M59.84,239.97l-1.69-2.54h-2.47l.12,6.07c0,.15-.15,.29-.29,.29h-3.25c-.15,0-.29-.15-.29-.29l.15-8.27-.15-8.27c0-.15,.15-.29,.29-.29h6.9c4.28,0,6.75,1.81,6.75,5.38,0,2.52-1.39,4.26-3.82,4.99l4.21,6.51c.07,.1,0,.24-.12,.24h-3.74c-.17,0-.34-.1-.44-.24l-2.15-3.57Zm-.54-10.59h-3.55l-.07,5.33h3.72c1.57,0,2.91-.73,2.91-2.59s-1.1-2.74-3.01-2.74Z"/><path class="cls-1" d="M69.3,243.78c-.15,0-.29-.15-.29-.29l.17-8.27-.17-8.27c0-.15,.15-.29,.29-.29h3.23c.15,0,.29,.15,.29,.29l-.17,8.27,.17,8.27c0,.15-.15,.29-.29,.29h-3.23Z"/><path class="cls-1" d="M76.57,243.78c-.15,0-.29-.15-.29-.29l.17-8.27-.17-8.27c0-.15,.15-.29,.29-.29h11.42c.15,0,.29,.15,.29,.29v2.18c0,.15-.15,.29-.29,.29h-7.88l-.15,3.94h7.31c.15,0,.29,.15,.29,.29v2.18c0,.15-.15,.29-.29,.29h-7.31l.15,4.89h8.07c.15,0,.29,.15,.29,.29v2.18c0,.15-.15,.29-.29,.29h-11.62Z"/><path class="cls-1" d="M94.92,237.45v6.04c0,.15-.15,.29-.29,.29h-2.94c-.15,0-.29-.15-.29-.29l.15-8.27-.15-8.27c0-.15,.15-.29,.29-.29h3.96c.17,0,.34,.1,.44,.24l6.8,12.06v-.29l-.12-4.84v-6.87c0-.15,.15-.29,.29-.29h2.94c.15,0,.29,.15,.29,.29l-.15,8.27,.15,8.27c0,.15-.15,.29-.29,.29h-4.11c-.17,0-.34-.1-.44-.24l-6.7-11.96,.05,.98,.12,4.89Z"/><path class="cls-1" d="M109.91,243.78c-.15,0-.29-.15-.29-.29l.17-8.27-.17-8.27c0-.15,.15-.29,.29-.29h5.99c4.92,0,9.08,2.64,9.08,8.68s-4.21,8.44-9.03,8.44h-6.04Zm3.55-2.76h2.69c2.76,0,4.99-1.64,4.99-5.7s-2.2-5.9-5.09-5.9h-2.59s-.15,2.89-.15,5.72,.15,5.85,.15,5.87Z"/><path class="cls-1" d="M128.11,243.78c-.15,0-.29-.15-.29-.29l.17-8.27-.17-8.27c0-.15,.15-.29,.29-.29h3.25c.15,0,.29,.15,.29,.29l-.15,8.05,.15,6.02h6.85c.15,0,.29,.15,.29,.29v2.18c0,.15-.15,.29-.29,.29h-10.4Z"/><path class="cls-1" d="M146.38,243.49c0,.15-.15,.29-.29,.29h-3.28c-.15,0-.29-.15-.29-.29l.15-5.5-5.75-11.06c-.07-.12,0-.27,.15-.27h3.67c.17,0,.34,.1,.42,.27l3.47,7.83,3.5-7.83c.07-.17,.24-.27,.42-.27h3.33c.15,0,.22,.15,.15,.27l-5.77,11.08,.15,5.48Z"/></g><g><path class="cls-1" d="M145.17,48.6c-7.19-7.78-16.56-12.67-26.4-13.77-10.21-1.15-20.07,1.97-27.75,8.77-4.12,3.64-7.23,8.35-9.52,14.37-1.84,4.83-3.18,10.5-4.34,18.37-2.14,14.46-11.37,28.02-11.45,28.15-.07,.09-.13,.18-.19,.27l-11.71,10.82c-3.15-1.27-10.66-3.27-16.96,2.95-3.88,3.83-5.12,9.43-3.23,14.6,1.73,4.75,5.63,7.98,10.72,8.88,.5,5.14,3.41,9.28,8.01,11.38,1.87,.86,3.84,1.29,5.85,1.29,3.27,0,6.45-1.19,8.96-3.36,6.69-5.79,5.28-13.44,4.27-16.67l12.68-11.72c3.47-1.86,15.57-7.86,28.06-8.71,12.02-.82,24.42-2.75,33.69-11.22,6.46-5.9,10.24-14.37,10.64-23.86,.47-11.11-3.66-22.25-11.33-30.55Zm7.95,30.4c-.36,8.58-3.75,16.21-9.54,21.5-8.51,7.77-20.24,9.56-31.64,10.34-15.51,1.06-29.89,9.34-30.5,9.7-.12,.07-.28,.16-.43,.22-.15-.37-.35-1.37-.27-2.49l.13-1.75-1.76-.07c-1.47-.06-2.51-.39-3.02-.97-.35-.4-.36-.84-.36-.93l.27-2.01-2.01,.11s-.01,0-.02,0c-.35-.04-.65-.17-.88-.4-.54-.54-.81-1.64-.75-3.11l.07-1.75h-1.75c-1.12-.02-2.13-.3-2.47-.46,.04-.1,.13-.25,.28-.46,.4-.57,9.77-14.25,12.04-29.61,1.98-13.4,4.91-23.74,12.76-30.7,6.95-6.16,15.88-8.98,25.13-7.94,9.02,1.01,17.65,5.52,24.28,12.7,7.07,7.64,10.87,17.89,10.44,28.1Zm-79.64,38.63c.88,1.05,2.18,1.73,3.88,2.03,.09,1.17,.39,2.61,1.29,3.56l-10.43,9.64-.92,.85,.51,1.14c.15,.33,3.55,8.21-2.93,13.81-3.08,2.66-7.32,3.25-11.07,1.54-3.77-1.72-6.03-5.37-6.04-9.75v-1.61s-1.61-.13-1.61-.13c-4.37-.35-7.82-2.89-9.24-6.79-1.41-3.87-.49-8.06,2.4-10.92,2.22-2.19,4.88-3.3,7.89-3.3,3.37,0,5.99,1.41,6.1,1.47l1.1,.61,11.37-10.51c.89,.81,2.18,1.18,3.22,1.34,.17,1.71,.75,3.07,1.72,4.02,.51,.51,1.11,.88,1.79,1.11,.18,.69,.51,1.32,.97,1.87Z"/><path class="cls-1" d="M95.46,189.28C42.94,189.7,.82,147.63,.01,96.2-.82,43.31,41.65,.24,94.17,0c52.11-.24,94.23,41.41,95.11,92.94,.91,53.14-41.65,95.93-93.82,96.34ZM3.24,94.6c-.12,50.42,41.08,91.84,92.14,91.46,49.47-.37,90.46-40.39,90.68-91.01,.22-50.7-40.77-91.82-91.29-91.84C44.18,3.21,3.24,44.08,3.24,94.6Z"/></g></svg>