<?xml version="1.0" encoding="UTF-8"?><svg id="Layer_1" xmlns="http://www.w3.org/2000/svg" viewBox="0 0 189.29 222.5"><defs><style>.cls-1{fill:#23d16a;}</style></defs><g><path class="cls-1" d="M156.59,75.93c2.12-3.59,1.49-8.22-1.56-11.52h0c-8.38-9.06-17.04-18.43-25.81-27.67-3.04-3.21-6.41-4.11-10.58-2.85-2.29,.69-4.12,2.68-6.07,4.77l-.44,.47c-1.36,1.46-3.01,2-4.89,1.59-3.65-.8-6.6-.04-9.27,2.4-.93,.84-1.83,1.67-2.7,2.53-2.34,2.31-3.28,5.1-2.89,8.51,.3,2.54,1.45,4.83,3.54,7,1.09,1.14,2.14,2.27,3.24,3.46,.5,.54,.99,1.07,1.5,1.61l2.63,2.81-34.86,32.4-3.63-3.9c-.76-.81-1.49-1.6-2.23-2.39l-.55-.59c-1.25-1.34-2.42-2.61-3.75-3.45-1.7-1.08-3.87-1.79-6.12-1.79-2.45,0-4.97,.84-7.05,2.94-.51,.51-1.07,1.04-1.78,1.67-2.95,2.6-4.04,5.67-3.45,9.66,.23,1.52-.37,3.17-1.52,4.19-.6,.53-1.2,1.05-1.79,1.54l-.03,.02c-.82,.69-1.57,1.33-2.28,2-1.9,1.79-2.82,3.95-2.8,6.6,.02,2.73,1.04,5.13,3.12,7.36,3.6,3.85,7.19,7.71,10.79,11.56l.31,.33c1.6,1.72,3.2,3.44,4.8,5.16,.91,.98,1.82,1.95,2.72,2.93l.03,.03c2.2,2.37,4.47,4.81,6.72,7.19,3.23,3.41,7.93,4.39,11.69,2.45,2.05-1.06,3.76-2.95,5.41-4.77,1.36-1.51,3.11-2.07,5.05-1.62,2.92,.68,5.42,.29,7.42-1.13,2.18-1.56,4.1-3.33,5.54-5.12,2.61-3.25,2.62-8.16,.01-11.95-.75-1.09-1.73-2.15-2.77-3.27-.46-.5-.92-1-1.37-1.5-.48-.55-1-1.1-1.54-1.68-.28-.3-.54-.58-.81-.86l-2.61-2.81,35.56-33.06,2.47,3.91c.09,.14,.17,.28,.25,.42,.58,.61,1.15,1.22,1.7,1.82,1.42,1.54,2.76,2.98,4.21,4.2,3.5,2.94,8.49,3.32,12.14,.92,.93-.61,1.84-1.46,2.81-2.36,.33-.31,.66-.61,.99-.91,2.76-2.49,3.8-5.43,3.27-9.24-.27-1.93,.42-3.61,2-4.84,1.98-1.55,4.03-3.15,5.2-5.15Zm-83.15,72.82c-.59,.56-1.22,1.07-1.77,1.67-2.76,2.97-6.66,1.94-8.62-.04-1.96-1.99-3.85-4.05-5.75-6.1-6.63-7.11-13.25-14.23-19.89-21.34-1.73-1.85-2.68-3.92-2.08-6.48,.51-2.17,4.3-5.63,6.5-5.92,2.34-.31,4.27,.58,5.86,2.27,2.55,2.71,5.07,5.43,7.61,8.15,5.91,6.34,11.81,12.68,17.72,19.01,1.29,1.38,2.08,2.96,2.09,4.21,0,2.21-.55,3.51-1.66,4.57Zm70.56-56.62c-.75,.72-1.55,1.38-2.26,2.13-2.89,3.05-7.01,2.32-9.49,.29-.52-.42-.99-.91-1.44-1.4-3.05-3.27-6.1-6.54-9.14-9.82-.19-.2-.31-.46-.52-.77-13.55,12.59-26.92,25.02-40.37,37.51,1.17,1.26,2.28,2.46,3.4,3.66,2.28,2.45,4.59,4.89,6.85,7.37,1.89,2.07,2.71,4.49,1.98,7.27-.6,2.26-4.74,6.17-7.03,6.65-2.93,.61-5.35-.42-7.33-2.53-5.66-6.03-11.29-12.09-16.92-18.14-5.26-5.64-10.51-11.29-15.78-16.92-1.81-1.94-2.83-4.14-2.45-6.84,.18-1.29,.73-2.4,1.67-3.31,.8-.78,1.66-1.5,2.44-2.3,2.73-2.84,6.55-2.27,8.88-.61,.72,.52,1.37,1.15,1.98,1.79,3.04,3.24,6.06,6.49,9.09,9.74,.21,.22,.42,.44,.69,.72,13.45-12.5,26.81-24.92,40.24-37.4-1.16-1.25-2.27-2.45-3.39-3.65-2.27-2.43-4.54-4.86-6.8-7.3-1.85-2.01-2.74-4.35-2.11-7.08,.19-.82,.57-1.69,1.13-2.3,1.25-1.34,2.57-2.66,4.04-3.76,2.42-1.79,6.12-1.29,8.62,1.07,1.16,1.09,2.21,2.29,3.3,3.46,9.98,10.71,19.96,21.43,29.95,32.13,1.59,1.7,2.64,3.6,2.61,5.98-.02,1.7-.61,3.17-1.85,4.35Zm8.42-16.78c-.55,.51-1.14,.99-1.65,1.55-2.9,3.15-6.89,1.99-8.93-.13-1.49-1.55-2.95-3.13-4.41-4.7-7.06-7.58-14.13-15.16-21.19-22.74-1.66-1.78-2.49-3.84-1.91-6.29,.53-2.22,4.31-5.64,6.58-5.93,2.38-.3,4.3,.67,5.89,2.38,2.76,2.96,5.52,5.93,8.28,8.89,5.58,5.99,11.15,11.98,16.74,17.95,1.35,1.44,2.27,3.04,2.28,5.33,0,1.29-.53,2.62-1.69,3.69Z"/><path class="cls-1" d="M95.46,189.28C42.94,189.7,.82,147.63,.01,96.2-.82,43.31,41.65,.24,94.17,0c52.11-.24,94.23,41.41,95.11,92.94,.91,53.14-41.65,95.93-93.82,96.34ZM3.24,94.6c-.12,50.42,41.08,91.84,92.14,91.46,49.47-.37,90.46-40.39,90.68-91.01,.22-50.7-40.77-91.82-91.29-91.84C44.18,3.21,3.24,44.08,3.24,94.6Z"/></g><g><path class="cls-1" d="M18.88,222.13c-.15,0-.29-.15-.29-.29l.12-7.46h-7.49l.12,7.46c0,.15-.15,.29-.29,.29h-3.28c-.15,0-.29-.15-.29-.29l.17-8.27-.17-8.27c0-.15,.15-.29,.29-.29h3.28c.15,0,.29,.15,.29,.29l-.12,6.31h7.49l-.12-6.31c0-.15,.15-.29,.29-.29h3.28c.15,0,.29,.15,.29,.29l-.17,8.27,.17,8.27c0,.15-.15,.29-.29,.29h-3.28Z"/><path class="cls-1" d="M26.19,222.13c-.15,0-.29-.15-.29-.29l.17-8.27-.17-8.27c0-.15,.15-.29,.29-.29h3.23c.15,0,.29,.15,.29,.29l-.17,8.27,.17,8.27c0,.15-.15,.29-.29,.29h-3.23Z"/><path class="cls-1" d="M41.11,222.5c-4.99,0-8.44-3.62-8.44-8.93s3.33-8.93,8.39-8.93c4.21,0,6.92,2.05,7.85,5.63,.05,.15-.07,.29-.22,.29h-3.25c-.17,0-.32-.12-.37-.29-.56-1.83-1.91-2.81-3.99-2.81-2.98,0-4.57,2.37-4.57,6.16s1.69,6.07,4.72,6.07c2.45,0,3.99-1.49,4.09-4.13h-4.18c-.15,0-.29-.15-.29-.29v-2.1c0-.15,.15-.29,.29-.29h7.88c.15,0,.29,.15,.29,.29,.02,6.29-2.94,9.35-8.2,9.35Z"/><path class="cls-1" d="M63.59,222.13c-.15,0-.29-.15-.29-.29l.12-7.46h-7.49l.12,7.46c0,.15-.15,.29-.29,.29h-3.28c-.15,0-.29-.15-.29-.29l.17-8.27-.17-8.27c0-.15,.15-.29,.29-.29h3.28c.15,0,.29,.15,.29,.29l-.12,6.31h7.49l-.12-6.31c0-.15,.15-.29,.29-.29h3.28c.15,0,.29,.15,.29,.29l-.17,8.27,.17,8.27c0,.15-.15,.29-.29,.29h-3.28Z"/><path class="cls-1" d="M83.21,216.19h-2.94l.12,5.65c0,.15-.15,.29-.29,.29h-3.28c-.15,0-.29-.15-.29-.29l.17-8.27-.17-8.27c0-.15,.15-.29,.29-.29h6.41c4.13,0,6.51,1.86,6.51,5.5s-2.45,5.68-6.53,5.68Zm.17-8.46h-3.03l-.12,5.75h3.25c1.44,0,2.67-.83,2.67-2.89s-1-2.86-2.76-2.86Z"/><path class="cls-1" d="M100.36,218.31l-1.69-2.54h-2.47l.12,6.07c0,.15-.15,.29-.29,.29h-3.25c-.15,0-.29-.15-.29-.29l.15-8.27-.15-8.27c0-.15,.15-.29,.29-.29h6.9c4.28,0,6.75,1.81,6.75,5.38,0,2.52-1.39,4.26-3.82,4.99l4.21,6.51c.07,.1,0,.24-.12,.24h-3.74c-.17,0-.34-.1-.44-.24l-2.15-3.57Zm-.54-10.59h-3.55l-.07,5.33h3.72c1.57,0,2.91-.73,2.91-2.59s-1.1-2.74-3.01-2.74Z"/><path class="cls-1" d="M117.31,222.5c-5.24,0-8.64-3.65-8.64-8.88s3.38-8.98,8.64-8.98,8.66,3.45,8.66,8.98c0,5.24-3.42,8.88-8.66,8.88Zm.02-2.86c3.08,0,4.79-2.28,4.79-6.02s-1.69-6.12-4.82-6.12-4.79,2.3-4.79,6.12,1.74,6.02,4.82,6.02Z"/><path class="cls-1" d="M132.16,222.13c-.15,0-.29-.15-.29-.29l.22-8.27-.17-5.8h-4.62c-.15,0-.29-.15-.29-.29v-2.18c0-.15,.15-.29,.29-.29h13.11c.15,0,.29,.15,.29,.29v2.18c0,.15-.15,.29-.29,.29h-4.62l-.17,5.8,.22,8.27c0,.15-.15,.29-.29,.29h-3.38Z"/><path class="cls-1" d="M143.49,222.13c-.15,0-.29-.15-.29-.29l.17-8.27-.17-8.27c0-.15,.15-.29,.29-.29h11.42c.15,0,.29,.15,.29,.29v2.18c0,.15-.15,.29-.29,.29h-7.88l-.15,3.94h7.31c.15,0,.29,.15,.29,.29v2.18c0,.15-.15,.29-.29,.29h-7.31l.15,4.89h8.07c.15,0,.29,.15,.29,.29v2.18c0,.15-.15,.29-.29,.29h-11.62Z"/><path class="cls-1" d="M158.73,222.13c-.15,0-.29-.15-.29-.29l.17-8.27-.17-8.27c0-.15,.15-.29,.29-.29h3.23c.15,0,.29,.15,.29,.29l-.17,8.27,.17,8.27c0,.15-.15,.29-.29,.29h-3.23Z"/><path class="cls-1" d="M169.22,215.79v6.04c0,.15-.15,.29-.29,.29h-2.94c-.15,0-.29-.15-.29-.29l.15-8.27-.15-8.27c0-.15,.15-.29,.29-.29h3.96c.17,0,.34,.1,.44,.24l6.8,12.06v-.29l-.12-4.84v-6.87c0-.15,.15-.29,.29-.29h2.94c.15,0,.29,.15,.29,.29l-.15,8.27,.15,8.27c0,.15-.15,.29-.29,.29h-4.11c-.17,0-.34-.1-.44-.24l-6.7-11.96,.05,.98,.12,4.89Z"/></g></svg>