<?xml version="1.0" encoding="UTF-8"?><svg id="Layer_1" xmlns="http://www.w3.org/2000/svg" viewBox="0 0 189.29 223.54"><defs><style>.cls-1{fill:#23d16a;}</style></defs><g><path class="cls-1" d="M95.46,189.28C42.94,189.7,.82,147.63,.01,96.2-.82,43.31,41.65,.24,94.17,0c52.11-.24,94.23,41.41,95.11,92.94,.91,53.14-41.65,95.93-93.82,96.34ZM3.24,94.6c-.12,50.42,41.08,91.84,92.14,91.46,49.47-.37,90.46-40.39,90.68-91.01,.22-50.7-40.77-91.82-91.29-91.84C44.18,3.21,3.24,44.08,3.24,94.6Z"/><path class="cls-1" d="M122.8,41.27h-56.45c-1.02,0-1.85,.83-1.85,1.85v7.53l-.04,.07-11.01,19.39s-.04,.09-.06,.13l-.03,.06c-.04,.1-.07,.2-.1,.31v.07c-.04,.13-.05,.23-.05,.33v.03s0,75.14,0,75.14c0,1.02,.83,1.85,1.85,1.85h79.17c1.02,0,1.85-.83,1.85-1.85V71.02s0-.07-.01-.1h0c0-.07,0-.13-.02-.2,0-.06-.02-.12-.04-.17-.02-.06-.03-.11-.05-.17-.02-.06-.05-.12-.08-.18-.01-.02-.02-.05-.03-.07l-11.2-19.72v-7.29c0-1.02-.83-1.85-1.85-1.85Zm-54.6,3.69h52.75v4.32h-52.75v-4.32Zm-1.85,9.91l8.12,14.3h-16.24l8.12-14.3Zm9.45,89.45h-18.89V72.86h18.89v71.46Zm56.58,0h-52.89V72.86h52.89v71.46Zm-1.33-75.15h-52.33l-9.19-16.19h52.33l9.19,16.19Z"/><path class="cls-1" d="M167.82,148.64l-23.07-21.2v6.35l19.9,18.29c.45,.41,1.02,.62,1.58,.62,.63,0,1.26-.25,1.72-.76,.87-.95,.81-2.43-.14-3.31Z"/><path class="cls-1" d="M53.41,51.88L30.56,31.26c-1.16-1.05-2.97-.97-4.04,.17-1.07,1.14-.99,2.92,.17,3.97l23.82,21.5,2.9-5.02Z"/></g><g><path class="cls-1" d="M12.16,223.54c-.17,0-.35-.17-.35-.35l.2-9.78-.2-9.78c0-.17,.17-.35,.35-.35h7.09c5.82,0,10.74,3.13,10.74,10.28s-4.98,9.99-10.68,9.99h-7.15Zm4.2-3.27h3.18c3.27,0,5.9-1.94,5.9-6.74s-2.6-6.98-6.02-6.98h-3.07s-.17,3.42-.17,6.77,.17,6.92,.17,6.95Z"/><path class="cls-1" d="M46.75,223.54c-.2,0-.41-.14-.46-.32l-1.53-4.83h-7.58l-1.48,4.83c-.09,.17-.26,.32-.46,.32h-3.79c-.17,0-.29-.17-.23-.32l6.8-19.63c.06-.17,.26-.32,.46-.32h5.24c.2,0,.41,.14,.46,.32l6.66,19.63c.06,.14-.06,.32-.23,.32h-3.85Zm-3.1-8.65l-2.78-8.65-2.63,8.65h5.41Z"/><path class="cls-1" d="M53.98,223.54c-.17,0-.35-.17-.35-.35l.2-9.78-.2-9.78c0-.17,.17-.35,.35-.35h3.82c.17,0,.35,.17,.35,.35l-.2,9.78,.2,9.78c0,.17-.17,.35-.35,.35h-3.82Z"/><path class="cls-1" d="M71.55,219.03l-2-3.01h-2.92l.14,7.18c0,.17-.17,.35-.35,.35h-3.85c-.17,0-.35-.17-.35-.35l.17-9.78-.17-9.78c0-.17,.17-.35,.35-.35h8.16c5.07,0,7.99,2.14,7.99,6.37,0,2.98-1.65,5.04-4.52,5.9l4.98,7.7c.09,.12,0,.29-.14,.29h-4.43c-.2,0-.41-.12-.52-.29l-2.55-4.23Zm-.64-12.53h-4.2l-.09,6.31h4.4c1.85,0,3.44-.87,3.44-3.07s-1.3-3.24-3.56-3.24Z"/><path class="cls-1" d="M91.32,223.2c0,.17-.17,.35-.35,.35h-3.88c-.17,0-.35-.17-.35-.35l.17-6.51-6.8-13.08c-.09-.14,0-.32,.17-.32h4.34c.2,0,.4,.12,.49,.32l4.11,9.26,4.14-9.26c.09-.2,.29-.32,.49-.32h3.94c.17,0,.26,.17,.17,.32l-6.83,13.11,.17,6.48Z"/><path class="cls-1" d="M107.56,223.54c-.17,0-.35-.17-.35-.35l.2-9.78-.2-9.78c0-.17,.17-.35,.35-.35h13.08c.17,0,.35,.17,.35,.35v2.58c0,.17-.17,.35-.35,.35h-8.89l-.17,5.56h8.65c.17,0,.35,.17,.35,.35v2.58c0,.17-.17,.35-.35,.35h-8.65l.17,7.82c0,.17-.17,.35-.35,.35h-3.85Z"/><path class="cls-1" d="M133.49,219.03l-2-3.01h-2.92l.14,7.18c0,.17-.17,.35-.35,.35h-3.85c-.17,0-.35-.17-.35-.35l.17-9.78-.17-9.78c0-.17,.17-.35,.35-.35h8.16c5.07,0,7.99,2.14,7.99,6.37,0,2.98-1.65,5.04-4.52,5.9l4.98,7.7c.09,.12,0,.29-.14,.29h-4.43c-.2,0-.41-.12-.52-.29l-2.55-4.23Zm-.64-12.53h-4.2l-.09,6.31h4.4c1.85,0,3.44-.87,3.44-3.07s-1.3-3.24-3.56-3.24Z"/><path class="cls-1" d="M144.55,223.54c-.17,0-.35-.17-.35-.35l.2-9.78-.2-9.78c0-.17,.17-.35,.35-.35h13.52c.17,0,.35,.17,.35,.35v2.58c0,.17-.17,.35-.35,.35h-9.32l-.17,4.66h8.65c.17,0,.35,.17,.35,.35v2.58c0,.17-.17,.35-.35,.35h-8.65l.17,5.79h9.55c.17,0,.35,.17,.35,.35v2.58c0,.17-.17,.35-.35,.35h-13.75Z"/><path class="cls-1" d="M162.43,223.54c-.17,0-.35-.17-.35-.35l.2-9.78-.2-9.78c0-.17,.17-.35,.35-.35h13.52c.17,0,.35,.17,.35,.35v2.58c0,.17-.17,.35-.35,.35h-9.32l-.17,4.66h8.65c.17,0,.35,.17,.35,.35v2.58c0,.17-.17,.35-.35,.35h-8.65l.17,5.79h9.55c.17,0,.35,.17,.35,.35v2.58c0,.17-.17,.35-.35,.35h-13.75Z"/></g></svg>