<?xml version="1.0" encoding="UTF-8"?><svg id="Layer_1" xmlns="http://www.w3.org/2000/svg" viewBox="0 0 189.29 230.12"><defs><style>.cls-1{fill:#23d16a;}</style></defs><g><path class="cls-1" d="M55.58,229.37c-.06,.17-.26,.32-.46,.32h-5.07c-.2,0-.41-.14-.46-.32l-6.43-19.63c-.06-.14,.06-.32,.23-.32h4.2c.2,0,.38,.14,.43,.35l4.83,16.53,4.69-16.53c.06-.2,.23-.35,.43-.35h3.65c.17,0,.29,.17,.23,.32l-6.28,19.63Z"/><path class="cls-1" d="M64.87,229.69c-.17,0-.35-.17-.35-.35l.2-9.78-.2-9.78c0-.17,.17-.35,.35-.35h13.52c.17,0,.35,.17,.35,.35v2.58c0,.17-.17,.35-.35,.35h-9.32l-.17,4.66h8.65c.17,0,.35,.17,.35,.35v2.58c0,.17-.17,.35-.35,.35h-8.65l.17,5.79h9.55c.17,0,.35,.17,.35,.35v2.58c0,.17-.17,.35-.35,.35h-13.75Z"/><path class="cls-1" d="M91.24,230.12c-5.9,0-9.99-4.28-9.99-10.57s3.94-10.57,9.93-10.57c4.98,0,8.19,2.43,9.29,6.66,.06,.17-.09,.35-.26,.35h-3.85c-.2,0-.38-.14-.43-.35-.67-2.17-2.26-3.33-4.72-3.33-3.53,0-5.41,2.81-5.41,7.29s2,7.18,5.59,7.18c2.89,0,4.72-1.77,4.83-4.89h-4.95c-.17,0-.35-.17-.35-.35v-2.49c0-.17,.17-.35,.35-.35h9.32c.17,0,.35,.17,.35,.35,.03,7.44-3.47,11.06-9.7,11.06Z"/><path class="cls-1" d="M117.76,229.69c-.2,0-.41-.14-.46-.32l-1.53-4.83h-7.58l-1.48,4.83c-.09,.17-.26,.32-.46,.32h-3.79c-.17,0-.29-.17-.23-.32l6.8-19.63c.06-.17,.26-.32,.46-.32h5.24c.2,0,.41,.14,.46,.32l6.66,19.63c.06,.14-.06,.32-.23,.32h-3.85Zm-3.1-8.65l-2.78-8.65-2.63,8.65h5.41Z"/><path class="cls-1" d="M128.67,222.19v7.15c0,.17-.17,.35-.35,.35h-3.47c-.17,0-.35-.17-.35-.35l.17-9.78-.17-9.78c0-.17,.17-.35,.35-.35h4.69c.2,0,.41,.12,.52,.29l8.05,14.27v-.35l-.14-5.73v-8.13c0-.17,.17-.35,.35-.35h3.47c.17,0,.35,.17,.35,.35l-.17,9.78,.17,9.78c0,.17-.17,.35-.35,.35h-4.86c-.2,0-.41-.12-.52-.29l-7.93-14.15,.06,1.16,.14,5.79Z"/></g><path class="cls-1" d="M95.46,189.28C42.94,189.7,.82,147.63,.01,96.2-.82,43.31,41.65,.24,94.17,0c52.11-.24,94.23,41.41,95.11,92.94,.91,53.14-41.65,95.93-93.82,96.34ZM3.24,94.6c-.12,50.42,41.08,91.84,92.14,91.46,49.47-.37,90.46-40.39,90.68-91.01,.22-50.7-40.77-91.82-91.29-91.84C44.18,3.21,3.24,44.08,3.24,94.6Z"/><g><path class="cls-1" d="M71.03,134.38c-8.16-4.2-16.9-16.9-16.9-29.12,0-.99-.8-1.79-1.79-1.79s-1.79,.8-1.79,1.79c0,13.52,9.75,27.62,18.85,32.3,.25,.13,.53,.2,.82,.2,.67,0,1.28-.37,1.59-.97,.45-.88,.1-1.96-.78-2.41Z"/><path class="cls-1" d="M149.21,95.05h0c-.99-2.46-2.5-3.33-3.6-3.64-.15-.04-.31-.06-.47-.06h-52.32c-1.41-6.81-.53-7.73-.43-7.81,.06-.05,.12-.09,.19-.14,1.25,.65,2.61,1.43,3.89,2.19,4.11,2.43,8.78,5.18,13.09,5.46,.5,.03,.96,.04,1.41,.04,6.64,0,14-2.94,21.88-8.74l.04-.03c2.51-1.85,4.89-3.6,7.57-4.91,1.77-.86,3.74-1.63,6.01-2.35,.19-.06,.34-.09,.47-.12,.5-.11,2.01-.43,1.92-2.48-.06-1.54-1.5-2.89-3.09-4.25l-.42-.36c-1.93-1.74-4.13-3.34-6.54-4.76-7.66-4.49-15.98-6.03-23.43-4.34-7.37,1.69-14.52,6.47-19.54,12.98,1.77-7.87,.94-16.29-2.32-22.95-3.35-6.84-9.79-12.34-18.12-15.48-2.63-.99-5.26-1.69-7.81-2.08l-.52-.09c-2.08-.39-4.05-.67-5.28,.26-1.66,1.24-.95,2.61-.71,3.07,.05,.1,.13,.24,.2,.42,.87,2.2,1.51,4.21,1.96,6.14,.68,2.97,.81,5.92,.97,9.34,.49,10.41,3.07,18.01,7.9,23.25,4.01,4.36,13.19,7.6,17.06,8.68-1.07,2.28-.64,5.77,0,9.03H44.15c-.16,0-.32,.02-.48,.06-1.1,.3-2.61,1.18-3.59,3.64-2.83,7.07,.18,22.9,6.33,33.21,4.72,7.93,9.86,15.46,20.61,20.34v6.43c0,1.92,1.56,3.47,3.47,3.47h45.2c1.91,0,3.47-1.56,3.47-3.47v-5.27c12.91-4.79,18.8-13.25,23.72-21.51,6.15-10.31,9.17-26.14,6.33-33.21Zm-12.21-28.85c2.21,1.3,4.21,2.75,5.96,4.33l.49,.42c.21,.18,.68,.58,1.09,.98-2.09,.69-3.94,1.44-5.65,2.27-2.98,1.45-5.62,3.39-8.42,5.46-7.52,5.54-14.49,8.17-20.69,7.82-3.45-.22-7.73-2.75-11.5-4.97-.78-.46-1.55-.91-2.4-1.38,10.25-6.4,28.63-12.58,37.78-7.97,.88,.44,1.96,.08,2.4-.8,.44-.88,.08-1.96-.8-2.4-9.62-4.84-26.28-.16-38.36,6.46,4.45-7.07,11.7-12.43,19.27-14.16h0c6.52-1.51,13.92-.11,20.82,3.94Zm-64.72-23.5c-.38,.29-.62,.71-.68,1.18-.06,.48,.07,.95,.36,1.33,4.57,5.9,15.47,23.97,16.61,33.2-4.83-1.52-11.11-4.23-13.83-7.19-4.17-4.54-6.51-11.7-6.97-21.3-.15-3.16-.3-6.43-1.05-9.68-.41-1.81-1-3.72-1.8-5.82,.41,.05,.91,.13,1.49,.24l.62,.11c2.32,.36,4.71,1,7.1,1.9,7.48,2.81,13.22,7.68,16.17,13.7,3.45,7.03,3.83,16.14,1.06,24.09-2.97-10.98-12.77-26.55-16.58-31.45-.29-.38-.71-.62-1.18-.68-.48-.06-.95,.07-1.33,.36Zm43.3,105.81v6.42h-44.97v-7.5c0-.72-.43-1.37-1.09-1.65-10.49-4.43-15.46-11.68-20.03-19.35-6.01-10.08-8.24-24.68-6.09-30.05,.31-.76,.67-1.26,1.06-1.46h100.37c.39,.19,.75,.69,1.06,1.46,2.16,5.37-.08,19.97-6.09,30.05h0c-4.93,8.29-10.41,16.08-23.01,20.38-.72,.25-1.21,.93-1.21,1.69Z"/></g></svg>