<?xml version="1.0" encoding="UTF-8"?><svg id="Layer_1" xmlns="http://www.w3.org/2000/svg" viewBox="0 0 193.38 223.88"><defs><style>.cls-1{fill:#23d16a;}</style></defs><g><path class="cls-1" d="M122.88,122.31c-1.21,.8-2.6,1.64-4.15,2.47l38.5,36.72c.45,.43,1.03,.64,1.6,.64,.61,0,1.23-.24,1.68-.72,.89-.93,.85-2.4-.08-3.29l-37.56-35.83Z"/><path class="cls-1" d="M62.69,71.33c.76-1.55,1.54-2.96,2.31-4.22L29.07,32.83c-.93-.89-2.4-.85-3.29,.08-.89,.93-.85,2.4,.08,3.29l36.83,35.13Z"/></g><path class="cls-1" d="M150.61,78.37c-.22-.2-5.45-4.96-13.15-7.39-1.5-.47-3.15-.87-4.92-1.11,5.69-2.94,9.2-7.5,11.33-11.58,3.73-7.16,4.06-14.23,4.07-14.52l.06-1.59-1.59,.07c-.3,.01-7.36,.34-14.52,4.07-4.23,2.2-8.97,5.89-11.9,11.96-.21-2.17-.67-4.19-1.24-5.98-2.43-7.7-7.19-12.93-7.39-13.15l-1.08-1.17-1.08,1.17c-.2,.22-4.97,5.45-7.39,13.15-.76,2.39-1.32,5.18-1.36,8.21-2.1-3.71-4.18-5.99-4.31-6.13l-1.08-1.17-1.08,1.17c-.2,.22-4.97,5.45-7.39,13.15-.76,2.39-1.32,5.18-1.36,8.21-2.1-3.71-4.18-5.99-4.31-6.13l-1.08-1.17-1.08,1.17c-.2,.22-4.97,5.45-7.39,13.15-.76,2.39-1.32,5.18-1.36,8.21-2.1-3.71-4.18-5.99-4.31-6.13l-1.08-1.17-1.08,1.17c-.2,.22-4.97,5.45-7.39,13.15-.76,2.39-1.32,5.18-1.36,8.21-2.1-3.71-4.18-5.99-4.31-6.13l-1.08-1.17-1.08,1.17c-.2,.22-4.97,5.45-7.39,13.15-2.19,6.96-2.79,17.22,6.42,27.16l-.02,.02h0s-8.7,8.7-8.7,8.7l2.08,2.08,8.7-8.7,.02-.02c6.38,5.91,12.9,7.78,18.59,7.78,3.17,0,6.08-.58,8.57-1.37,7.7-2.43,12.93-7.19,13.15-7.39l1.17-1.08-1.17-1.08c-.14-.13-2.42-2.21-6.14-4.31,3.03-.04,5.82-.6,8.21-1.36,7.7-2.43,12.93-7.19,13.15-7.39l1.17-1.08-1.17-1.08c-.14-.13-2.42-2.21-6.14-4.31,3.03-.04,5.82-.6,8.21-1.36,7.7-2.43,12.93-7.19,13.15-7.39l1.17-1.08-1.17-1.08c-.14-.13-2.42-2.21-6.14-4.31,3.03-.04,5.82-.6,8.21-1.36,7.7-2.43,12.93-7.19,13.15-7.39l1.17-1.08-1.17-1.08c-.14-.13-2.42-2.21-6.14-4.31,3.03-.04,5.82-.6,8.21-1.36,7.7-2.43,12.93-7.19,13.15-7.39l1.17-1.08-1.17-1.08ZM63.58,126.16l1.04,1.04,.02-.02c1.41,1.3,2.82,2.41,4.23,3.34-3.84-.13-8.1,.58-12.46,2.81,2.23-4.36,2.94-8.62,2.81-12.47,.93,1.41,2.04,2.83,3.34,4.24l-.02,.02,1.04,1.04Zm15.22-15.22l1.04,1.04,.02-.02c1.41,1.3,2.82,2.41,4.23,3.34-3.84-.13-8.1,.58-12.46,2.81,2.23-4.36,2.94-8.62,2.81-12.47,.93,1.41,2.04,2.83,3.34,4.24l-.02,.02,1.04,1.04Zm15.22-15.22l1.04,1.04,.02-.02c1.41,1.3,2.82,2.41,4.23,3.34-3.84-.13-8.1,.58-12.46,2.81,2.23-4.36,2.94-8.62,2.81-12.47,.93,1.41,2.04,2.83,3.34,4.24l-.02,.02,1.04,1.04Zm15.22-15.22l1.04,1.04,.02-.02c1.41,1.3,2.82,2.41,4.23,3.34-3.84-.13-8.1,.58-12.46,2.81,2.23-4.36,2.94-8.62,2.81-12.47,.93,1.41,2.04,2.83,3.34,4.24l-.02,.02,1.04,1.04Zm23.92-31.54c4.59-2.41,9.26-3.3,11.68-3.61-.32,2.42-1.2,7.08-3.61,11.68-4.31,8.23-11.4,12.59-21.06,13,.41-9.66,4.77-16.75,13-21.06Zm-28.58,4.3c1.54-4.95,4.21-8.88,5.7-10.81,1.49,1.94,4.16,5.86,5.7,10.81,2.77,8.87,.85,16.96-5.7,24.08-6.55-7.12-8.47-15.22-5.7-24.08Zm-15.22,15.22c1.54-4.95,4.21-8.88,5.7-10.81,1.49,1.94,4.16,5.86,5.7,10.81,2.77,8.87,.85,16.96-5.7,24.08-6.55-7.12-8.47-15.22-5.7-24.08Zm-15.22,15.22c1.54-4.95,4.21-8.88,5.7-10.81,1.49,1.94,4.16,5.86,5.7,10.81,2.77,8.87,.85,16.96-5.7,24.08-6.55-7.12-8.47-15.22-5.7-24.08Zm-15.22,15.22c1.54-4.95,4.21-8.88,5.7-10.81,1.48,1.92,4.12,5.79,5.67,10.72,2.81,8.9,.9,17.03-5.67,24.17-6.55-7.12-8.47-15.22-5.7-24.08Zm-15.22,15.22c1.54-4.95,4.21-8.88,5.7-10.81,1.49,1.94,4.16,5.86,5.7,10.81,2.77,8.87,.85,16.96-5.7,24.08-6.55-7.12-8.47-15.22-5.7-24.08Zm32,31.88c-8.9,2.81-17.03,.9-24.17-5.67,7.12-6.55,15.22-8.47,24.08-5.7,4.95,1.55,8.88,4.21,10.81,5.7-1.92,1.48-5.79,4.12-10.72,5.67Zm15.13-15.2c-8.87,2.77-16.96,.85-24.08-5.7,7.12-6.55,15.21-8.47,24.08-5.7,4.95,1.54,8.88,4.21,10.81,5.7-1.94,1.49-5.86,4.16-10.81,5.7Zm15.22-15.22c-8.87,2.77-16.96,.85-24.08-5.7,7.12-6.55,15.22-8.47,24.08-5.7,4.95,1.54,8.88,4.21,10.81,5.7-1.94,1.49-5.86,4.16-10.81,5.7Zm15.31-15.25c-8.9,2.81-17.03,.9-24.17-5.67,7.12-6.55,15.22-8.47,24.08-5.7,4.95,1.55,8.88,4.21,10.81,5.7-1.92,1.48-5.79,4.12-10.72,5.67Zm15.13-15.2c-8.87,2.77-16.96,.85-24.08-5.7,7.12-6.55,15.22-8.47,24.08-5.7,4.95,1.54,8.88,4.21,10.81,5.7-1.94,1.49-5.86,4.16-10.81,5.7Z"/><path class="cls-1" d="M95.46,189.28C42.94,189.7,.82,147.63,.01,96.2-.82,43.31,41.65,.24,94.17,0c52.11-.24,94.23,41.41,95.11,92.94,.91,53.14-41.65,95.93-93.82,96.34ZM3.24,94.6c-.12,50.42,41.08,91.84,92.14,91.46,49.47-.37,90.46-40.39,90.68-91.01,.22-50.7-40.77-91.82-91.29-91.84C44.18,3.21,3.24,44.08,3.24,94.6Z"/><g><path class="cls-1" d="M11.24,223.88c-5.9,0-9.99-4.28-9.99-10.57s3.94-10.57,9.93-10.57c4.98,0,8.19,2.43,9.29,6.66,.06,.17-.09,.35-.26,.35h-3.85c-.2,0-.38-.14-.43-.35-.67-2.17-2.26-3.33-4.72-3.33-3.53,0-5.41,2.81-5.41,7.29s2,7.18,5.59,7.18c2.89,0,4.72-1.77,4.83-4.89h-4.95c-.17,0-.35-.17-.35-.35v-2.49c0-.17,.17-.35,.35-.35h9.32c.17,0,.35,.17,.35,.35,.03,7.44-3.47,11.06-9.7,11.06Z"/><path class="cls-1" d="M24.7,223.44c-.17,0-.35-.17-.35-.35l.2-9.78-.2-9.78c0-.17,.17-.35,.35-.35h3.85c.17,0,.35,.17,.35,.35l-.17,9.52,.17,7.12h8.1c.17,0,.35,.17,.35,.35v2.58c0,.17-.17,.35-.35,.35h-12.3Z"/><path class="cls-1" d="M47.39,223.88c-5.38,0-8.25-2.81-8.22-7.96l.06-5.5-.17-6.89c0-.17,.17-.35,.35-.35h3.97c.17,0,.35,.17,.35,.35l-.14,6.77,.03,5.59c0,2.89,1.16,4.49,3.79,4.49,2.84,0,4.08-1.59,4.08-4.49v-5.5l-.12-6.86c0-.17,.17-.35,.35-.35h3.53c.17,0,.35,.17,.35,.35l-.12,6.89v5.5c0,5.15-2.69,7.96-8.08,7.96Z"/><path class="cls-1" d="M64.41,223.44c-.17,0-.35-.17-.35-.35l.26-9.78-.2-6.86h-5.47c-.17,0-.35-.17-.35-.35v-2.58c0-.17,.17-.35,.35-.35h15.51c.17,0,.35,.17,.35,.35v2.58c0,.17-.17,.35-.35,.35h-5.47l-.2,6.86,.26,9.78c0,.17-.17,.35-.35,.35h-3.99Z"/><path class="cls-1" d="M77.81,223.44c-.17,0-.35-.17-.35-.35l.2-9.78-.2-9.78c0-.17,.17-.35,.35-.35h13.52c.17,0,.35,.17,.35,.35v2.58c0,.17-.17,.35-.35,.35h-9.32l-.17,4.66h8.65c.17,0,.35,.17,.35,.35v2.58c0,.17-.17,.35-.35,.35h-8.65l.17,5.79h9.55c.17,0,.35,.17,.35,.35v2.58c0,.17-.17,.35-.35,.35h-13.75Z"/><path class="cls-1" d="M99.52,215.94v7.15c0,.17-.17,.35-.35,.35h-3.47c-.17,0-.35-.17-.35-.35l.17-9.78-.17-9.78c0-.17,.17-.35,.35-.35h4.69c.2,0,.41,.12,.52,.29l8.05,14.27v-.35l-.14-5.73v-8.13c0-.17,.17-.35,.35-.35h3.47c.17,0,.35,.17,.35,.35l-.17,9.78,.17,9.78c0,.17-.17,.35-.35,.35h-4.86c-.2,0-.41-.12-.52-.29l-7.93-14.15,.06,1.16,.14,5.79Z"/><path class="cls-1" d="M124.41,223.44c-.17,0-.35-.17-.35-.35l.2-9.78-.2-9.78c0-.17,.17-.35,.35-.35h13.08c.17,0,.35,.17,.35,.35v2.58c0,.17-.17,.35-.35,.35h-8.89l-.17,5.56h8.65c.17,0,.35,.17,.35,.35v2.58c0,.17-.17,.35-.35,.35h-8.65l.17,7.82c0,.17-.17,.35-.35,.35h-3.85Z"/><path class="cls-1" d="M150.34,218.93l-2-3.01h-2.92l.14,7.18c0,.17-.17,.35-.35,.35h-3.85c-.17,0-.35-.17-.35-.35l.17-9.78-.17-9.78c0-.17,.17-.35,.35-.35h8.16c5.07,0,7.99,2.14,7.99,6.37,0,2.98-1.65,5.04-4.52,5.9l4.98,7.7c.09,.12,0,.29-.14,.29h-4.43c-.2,0-.4-.12-.52-.29l-2.55-4.23Zm-.64-12.53h-4.2l-.09,6.31h4.4c1.85,0,3.44-.87,3.44-3.07s-1.3-3.24-3.56-3.24Z"/><path class="cls-1" d="M161.4,223.44c-.17,0-.35-.17-.35-.35l.2-9.78-.2-9.78c0-.17,.17-.35,.35-.35h13.52c.17,0,.35,.17,.35,.35v2.58c0,.17-.17,.35-.35,.35h-9.32l-.17,4.66h8.65c.17,0,.35,.17,.35,.35v2.58c0,.17-.17,.35-.35,.35h-8.65l.17,5.79h9.55c.17,0,.35,.17,.35,.35v2.58c0,.17-.17,.35-.35,.35h-13.75Z"/><path class="cls-1" d="M179.28,223.44c-.17,0-.35-.17-.35-.35l.2-9.78-.2-9.78c0-.17,.17-.35,.35-.35h13.52c.17,0,.35,.17,.35,.35v2.58c0,.17-.17,.35-.35,.35h-9.32l-.17,4.66h8.65c.17,0,.35,.17,.35,.35v2.58c0,.17-.17,.35-.35,.35h-8.65l.17,5.79h9.55c.17,0,.35,.17,.35,.35v2.58c0,.17-.17,.35-.35,.35h-13.75Z"/></g></svg>