<?xml version="1.0" encoding="UTF-8"?><svg id="Layer_1" xmlns="http://www.w3.org/2000/svg" viewBox="0 0 189.29 243.31"><defs><style>.cls-1{fill:#23d16a;}</style></defs><g><g><path class="cls-1" d="M82.9,68.61h-.02c-1.25,0-2.42,.5-3.3,1.39-.88,.89-1.37,2.08-1.36,3.34,.01,2.5,2.14,4.62,4.63,4.63,0,0,.02,0,.03,0,1.24,0,2.41-.49,3.3-1.37,.9-.89,1.39-2.06,1.39-3.31,0-1.25-.49-2.42-1.38-3.31-.89-.88-2.06-1.37-3.3-1.37Zm.04,6.85c-1.23,0-2.23-1-2.23-2.23s1-2.23,2.23-2.23,2.23,1,2.23,2.23-1,2.23-2.23,2.23Z"/><path class="cls-1" d="M81.79,164.54c.54,.41,1.04,.58,1.48,.51,.41-.07,.79-.36,1.11-.86,3.75-5.79,8.64-10.39,13.74-14.99,.5-.45,1.34-.78,2.12-.83,1.36-.09,2.75-.12,4.1-.15,2.35-.05,4.78-.11,7.11-.47,16.11-2.53,28.36-10.98,36.4-25.14,5.31-9.35,7.3-19.13,5.89-29.08-1.26-8.9-5.58-16.93-12.19-22.59-6.58-5.64-15.19-8.75-24.23-8.76-12.99,0-25.98,0-38.97,0h-17.22s-.31,0-.31,0c-.24,0-.47,0-.71,0-1.12,.06-1.63,.57-1.68,1.66-.02,.54-.02,1.09-.01,1.67,0,.27,0,.56,0,.85v.18h-3.63c-3.15,0-6.25,0-9.34,0h-.01c-1.02,0-1.53-.45-1.66-1.47-.51-4.28,1.71-8.37,5.4-9.95,1.85-.79,3.82-.96,5.15-.97,11.33-.05,22.86-.05,34-.05,4.03,0,8.05,0,12.08,0,1.38,0,2.15-.57,2.17-1.61,0-.43-.13-.79-.4-1.07-.35-.36-.9-.54-1.6-.54-3.89,0-7.77,0-11.66,0-11.83,0-24.05-.01-36.08,.05-5.75,.03-10.81,4.25-12.03,10.03-.15,.7-.23,1.43-.31,2.21-.04,.38-.08,.77-.13,1.18l-.04,.32-.25-.21c-2.31-1.9-3.51-4.2-3.68-7.03-.16-2.67,.74-5.2,2.53-7.11,1.86-1.98,4.45-3.07,7.28-3.07,10.28-.01,20.56-.01,30.84,0,5.34,0,10.67,0,16.01,0,1.38,0,2.15-.56,2.17-1.58,0-.44-.12-.8-.39-1.08-.36-.37-.95-.56-1.71-.56-3.88,0-7.76,0-11.64,0-11.67,0-23.73-.01-35.59,.02-6.02,.02-11.15,4.15-12.46,10.05-1.29,5.81,1.59,11.74,7,14.44,.65,.32,1.27,.9,1.67,1.55,2.35,3.81,5.58,5.96,9.62,6.38,2.17,.23,4.41,.2,6.57,.18,.4,0,.8,0,1.2-.01,.95-.01,1.6,.2,2.09,1.28,1.36,3.02,3.29,5.88,5.75,8.49,.19,.21,.38,.42,.57,.63l.37,.42-.3,.33c-.11,.12-.21,.23-.3,.33-3.16,3.68-4.64,8.17-4.67,14.13,0,.97,.51,1.53,1.46,1.59,.98,.06,1.55-.44,1.71-1.5,.05-.34,.06-.7,.07-1.05,0-.2,0-.4,.02-.6,.19-3.14,.89-5.77,2.15-8.04,.41-.74,.92-1.41,1.42-2.05,.21-.28,.42-.55,.62-.82l.1-.13,7.07,4.37v.09s.04,.11,0,.19c-.13,.27-.26,.54-.39,.8-1.66,3.33-2.4,7.04-2.25,11.33,.02,.73,.28,1.31,.73,1.63,.37,.26,.85,.32,1.35,.15,.97-.31,1.15-1.05,1.13-2.07-.07-3.33,.42-6.17,1.49-8.71,.93-2.21,1.03-2.26,3.32-1.65,.64,.17,1.21,.3,1.75,.39,1.13,.19,2.27,.38,3.42,.56l1.57,.25-.05,.19c-.98,3.87-1.1,7.52-.37,11.15,.15,.77,.44,1.29,.85,1.56,.31,.2,.7,.26,1.16,.15,.99-.22,1.35-.95,1.13-2.31-.61-3.83-.5-6.92,.35-9.71,.22-.72,.55-1.16,1.5-1.14,1.34,.04,2.71,.03,4.04,.03,.94,0,1.91,0,2.87,0,7.82,.1,14.71,5.18,17.15,12.63,2.89,8.85-1.01,19.28-9.29,24.81-4.11,2.75-8.37,4.02-12.64,3.79-2.62-.14-5.54-.72-8.66-1.72-3.21-1.03-6.4-2.31-9.48-3.56-.78-.31-1.55-.63-2.33-.94-.51-.2-.93-.3-1.28-.3-.23,0-.43,.04-.61,.13-.42,.21-.73,.69-.94,1.48-.1,.35-.17,.67-.23,.98-.96,4.89-.37,8.38,1.92,11.31,.28,.35,.64,.69,.99,1.01,.61,.56,1.25,1.15,1.45,1.87,.2,.72-.01,1.53-.22,2.32-.13,.49-.27,1-.3,1.48-.35,5.44,1.28,9.46,5,12.3Zm-22.21-91.11c-.91-.03-1.84-.01-2.73,0-.54,.01-1.09,.02-1.64,.02-3.17,0-6.34-.37-8.96-3.3l-.27-.3h12.95l.89,3.58h-.24Zm88.38,11.53l.14,.31c1.41,3.06,2.24,6,2.52,9.01,1.21,12.83-2.52,24.51-11.07,34.7-.52,.62-1.04,.88-1.78,.88-.07,0-.15,0-.22,0-6.56-.43-11.37-2.39-15.16-6.15-.66-.66-.83-1.27-.61-2.19,1.33-5.49,.96-10.4-1.14-15.01-.06-.12-.1-.26-.15-.41-.03-.08-.05-.16-.09-.25l-.06-.18,.18-.05c12.35-3.73,21.27-10.39,27.26-20.36l.17-.29Zm-44.36,4.57c-.1,.2-.2,.4-.3,.61-1.24,2.55-2.87,3.67-5.35,3.67-.23,0-.46,0-.7-.03-1.44-.11-2.92-.14-4.34-.17-3.01-.06-6.13-.13-9.16-.95-5.84-1.59-11.04-4.91-15.03-9.62-4-4.72-6.4-10.37-6.95-16.34-.02-.23-.02-.45-.01-.71,0-.13,0-.27,0-.43v-.18h9.98c10.14,0,20.62,0,30.93-.03h.02c1.18,0,1.85,.42,2.4,1.51,1.05,2.09,1.58,4.51,1.67,7.63,.13,4.67-.66,9.15-2.36,13.32-.24,.58-.52,1.16-.8,1.71Zm15.54,12.94c-.41,0-.92-.19-1.15-.46-3.9-4.5-6.9-6.35-12.87-7.94l-.22-.06,.11-.2c5.32-9.59,6.41-18.77,3.32-28.07l-.07-.22h.24c9.89-.44,18.74-.37,26.75,4.82,4.28,2.77,7.66,6.07,10.31,10.08,.47,.7,.49,1.25,.07,2.02-4.42,8.2-11.21,14.13-20.75,18.15-1.81,.76-3.74,1.34-5.45,1.85-.08,.02-.18,.04-.28,.04Zm-22.67,39.01h.07c.1,0,.21,0,.31,0,8.99-.38,16.13-4.27,21.24-11.57,.5-.72,.95-1.49,1.41-2.3,.23-.39,.46-.8,.71-1.21l.11-.19,.16,.14c4.22,3.78,9.02,5.92,14.68,6.55l.39,.04-.29,.27c-.21,.19-.4,.37-.57,.53-.36,.34-.67,.63-1.01,.9-8.25,6.64-17.84,10.15-28.5,10.44-1.36,.04-2.72,.05-4.07,.05-1.56,0-3.11-.02-4.63-.03-.67,0-1.22-.22-1.57-.6-.31-.33-.45-.78-.41-1.28,.08-1.11,.77-1.7,1.99-1.72Zm-16.44,4.34c-3.45-2.01-4.8-5.18-4.14-9.7l.03-.21,15.68,5.19-.06,.17c-.94,2.82-.09,5.1,2.47,6.59l.19,.11-11.82,12.72-.13-.16c-1.81-2.21-2.56-4.96-2.23-8.18,.14-1.42,.53-2.8,.9-4.14,.31-1.13,.05-1.85-.89-2.4Z"/></g><path class="cls-1" d="M116.27,111.08l-11.42-10.49c-.89-.18-1.8-.29-2.73-.3-.9-.01-1.81,0-2.69,0h-.12c-.78,0-1.62,0-2.48,0l19.86,18.25c.41-2.49,.3-5.04-.41-7.45Z"/><path class="cls-1" d="M163.35,154.34l-20.21-18.57c-1.22,1.27-2.49,2.46-3.81,3.58l20.49,18.83c.5,.46,1.13,.69,1.76,.69,.7,0,1.41-.28,1.92-.84,.97-1.06,.9-2.71-.16-3.68Z"/><path class="cls-1" d="M40.89,41.83l-11.55-10.61c-1.06-.97-2.71-.9-3.68,.16-.97,1.06-.9,2.71,.16,3.68l10.44,9.59c1.37-1.19,2.93-2.14,4.64-2.82Z"/><path class="cls-1" d="M95.46,189.28C42.94,189.7,.82,147.63,.01,96.2-.82,43.31,41.65,.24,94.17,0c52.11-.24,94.23,41.41,95.11,92.94,.91,53.14-41.65,95.93-93.82,96.34ZM3.24,94.6c-.12,50.42,41.08,91.84,92.14,91.46,49.47-.37,90.46-40.39,90.68-91.01,.22-50.7-40.77-91.82-91.29-91.84C44.18,3.21,3.24,44.08,3.24,94.6Z"/></g><g><path class="cls-1" d="M35.72,221.45c-4.48,0-7.56-1.86-7.75-5.87,0-.15,.15-.29,.29-.29h3.3c.17,0,.29,.12,.32,.29,.27,1.86,1.15,3.08,3.91,3.08,2.23,0,3.45-.66,3.45-2.27,0-3.87-10.94-.81-10.94-7.61,0-3.2,2.5-5.21,6.87-5.21,3.99,0,6.73,1.54,7.27,5.14,.02,.15-.1,.29-.24,.29h-3.3c-.2,0-.32-.12-.34-.29-.22-1.49-1.47-2.32-3.52-2.32-1.76,0-3.03,.61-3.03,2.03,0,3.64,10.98,.68,10.98,7.46,0,3.62-2.79,5.58-7.27,5.58Z"/><path class="cls-1" d="M57.02,221.06c-.15,0-.29-.15-.29-.29l.12-7.46h-7.49l.12,7.46c0,.15-.15,.29-.29,.29h-3.28c-.15,0-.29-.15-.29-.29l.17-8.27-.17-8.27c0-.15,.15-.29,.29-.29h3.28c.15,0,.29,.15,.29,.29l-.12,6.31h7.49l-.12-6.31c0-.15,.15-.29,.29-.29h3.28c.15,0,.29,.15,.29,.29l-.17,8.27,.17,8.27c0,.15-.15,.29-.29,.29h-3.28Z"/><path class="cls-1" d="M64.22,221.06c-.15,0-.29-.15-.29-.29l.17-8.27-.17-8.27c0-.15,.15-.29,.29-.29h11.42c.15,0,.29,.15,.29,.29v2.18c0,.15-.15,.29-.29,.29h-7.88l-.15,3.94h7.31c.15,0,.29,.15,.29,.29v2.18c0,.15-.15,.29-.29,.29h-7.31l.15,4.89h8.07c.15,0,.29,.15,.29,.29v2.18c0,.15-.15,.29-.29,.29h-11.62Z"/><path class="cls-1" d="M79.33,221.06c-.15,0-.29-.15-.29-.29l.17-8.27-.17-8.27c0-.15,.15-.29,.29-.29h3.25c.15,0,.29,.15,.29,.29l-.15,8.05,.15,6.02h6.85c.15,0,.29,.15,.29,.29v2.18c0,.15-.15,.29-.29,.29h-10.4Z"/><path class="cls-1" d="M92.69,221.06c-.15,0-.29-.15-.29-.29l.17-8.27-.17-8.27c0-.15,.15-.29,.29-.29h3.25c.15,0,.29,.15,.29,.29l-.15,8.05,.15,6.02h6.85c.15,0,.29,.15,.29,.29v2.18c0,.15-.15,.29-.29,.29h-10.4Z"/><path class="cls-1" d="M106.05,221.06c-.15,0-.29-.15-.29-.29l.17-8.27-.17-8.27c0-.15,.15-.29,.29-.29h11.06c.15,0,.29,.15,.29,.29v2.18c0,.15-.15,.29-.29,.29h-7.51l-.15,4.7h7.31c.15,0,.29,.15,.29,.29v2.18c0,.15-.15,.29-.29,.29h-7.31l.15,6.61c0,.15-.15,.29-.29,.29h-3.25Z"/><path class="cls-1" d="M120.5,221.06c-.15,0-.29-.15-.29-.29l.17-8.27-.17-8.27c0-.15,.15-.29,.29-.29h3.23c.15,0,.29,.15,.29,.29l-.17,8.27,.17,8.27c0,.15-.15,.29-.29,.29h-3.23Z"/><path class="cls-1" d="M134.57,221.45c-4.48,0-7.56-1.86-7.75-5.87,0-.15,.15-.29,.29-.29h3.3c.17,0,.29,.12,.32,.29,.27,1.86,1.15,3.08,3.91,3.08,2.23,0,3.45-.66,3.45-2.27,0-3.87-10.94-.81-10.94-7.61,0-3.2,2.5-5.21,6.87-5.21,3.99,0,6.73,1.54,7.27,5.14,.02,.15-.1,.29-.24,.29h-3.3c-.2,0-.32-.12-.34-.29-.22-1.49-1.47-2.32-3.52-2.32-1.76,0-3.03,.61-3.03,2.03,0,3.64,10.98,.68,10.98,7.46,0,3.62-2.79,5.58-7.27,5.58Z"/><path class="cls-1" d="M155.88,221.06c-.15,0-.29-.15-.29-.29l.12-7.46h-7.49l.12,7.46c0,.15-.15,.29-.29,.29h-3.28c-.15,0-.29-.15-.29-.29l.17-8.27-.17-8.27c0-.15,.15-.29,.29-.29h3.28c.15,0,.29,.15,.29,.29l-.12,6.31h7.49l-.12-6.31c0-.15,.15-.29,.29-.29h3.28c.15,0,.29,.15,.29,.29l-.17,8.27,.17,8.27c0,.15-.15,.29-.29,.29h-3.28Z"/><path class="cls-1" d="M65.24,243.31c-.15,0-.29-.15-.29-.29l.17-8.27-.17-8.27c0-.15,.15-.29,.29-.29h11.06c.15,0,.29,.15,.29,.29v2.18c0,.15-.15,.29-.29,.29h-7.51l-.15,4.7h7.31c.15,0,.29,.15,.29,.29v2.18c0,.15-.15,.29-.29,.29h-7.31l.15,6.61c0,.15-.15,.29-.29,.29h-3.25Z"/><path class="cls-1" d="M87.16,239.49l-1.69-2.54h-2.47l.12,6.07c0,.15-.15,.29-.29,.29h-3.25c-.15,0-.29-.15-.29-.29l.15-8.27-.15-8.27c0-.15,.15-.29,.29-.29h6.9c4.28,0,6.75,1.81,6.75,5.38,0,2.52-1.39,4.26-3.82,4.99l4.21,6.51c.07,.1,0,.24-.12,.24h-3.74c-.17,0-.34-.1-.44-.24l-2.15-3.57Zm-.54-10.59h-3.55l-.07,5.33h3.72c1.57,0,2.91-.73,2.91-2.59s-1.1-2.74-3.01-2.74Z"/><path class="cls-1" d="M96.51,243.31c-.15,0-.29-.15-.29-.29l.17-8.27-.17-8.27c0-.15,.15-.29,.29-.29h11.42c.15,0,.29,.15,.29,.29v2.18c0,.15-.15,.29-.29,.29h-7.88l-.15,3.94h7.31c.15,0,.29,.15,.29,.29v2.18c0,.15-.15,.29-.29,.29h-7.31l.15,4.89h8.07c.15,0,.29,.15,.29,.29v2.18c0,.15-.15,.29-.29,.29h-11.62Z"/><path class="cls-1" d="M111.62,243.31c-.15,0-.29-.15-.29-.29l.17-8.27-.17-8.27c0-.15,.15-.29,.29-.29h11.42c.15,0,.29,.15,.29,.29v2.18c0,.15-.15,.29-.29,.29h-7.88l-.15,3.94h7.31c.15,0,.29,.15,.29,.29v2.18c0,.15-.15,.29-.29,.29h-7.31l.15,4.89h8.07c.15,0,.29,.15,.29,.29v2.18c0,.15-.15,.29-.29,.29h-11.62Z"/></g></svg>